<svg width="142" height="44" viewBox="0 0 142 44" fill="none" xmlns="http://www.w3.org/2000/svg"><rect x="0.534769" y="0.580668" width="140.793" height="42.7719" rx="4.61266" fill="white" stroke="#E3E3E3" style="fill:white;fill-opacity:1;stroke:color(display-p3 0.8902 0.8902 0.8902);stroke-opacity:1" stroke-width="0.838665"></rect><path d="M22.4305 21.3929L11.3931 33.2398C11.3931 33.242 11.3952 33.2442 11.3952 33.2464C11.7333 34.5327 12.8949 35.4794 14.2754 35.4794C14.8259 35.4794 15.3438 35.3282 15.7881 35.0653L15.8228 35.0433L28.2473 27.7941L22.4305 21.3929Z" fill="#D8432B" style="fill:color(display-p3 0.8471 0.2627 0.1686);fill-opacity:1"></path><path d="M33.5959 19.3769L33.5851 19.3703L28.2213 16.2256L22.1792 21.6626L28.243 27.7943L33.5786 24.6802C34.5148 24.1696 35.1498 23.1725 35.1498 22.022C35.1498 20.8802 34.5235 19.8897 33.5959 19.3769Z" fill="#FBC81D" style="fill:color(display-p3 0.9843 0.7843 0.1137);fill-opacity:1"></path><path d="M11.3934 10.7578C11.3262 11.0054 11.2915 11.264 11.2915 11.5335V32.464C11.2915 32.7336 11.3262 32.9922 11.3934 33.2398L22.8101 21.6975L11.3934 10.7578Z" fill="#3371C1" style="fill:color(display-p3 0.2000 0.4431 0.7569);fill-opacity:1"></path><path d="M22.5132 21.9984L28.2259 16.2239L15.8166 8.94834C15.3658 8.67441 14.8392 8.51663 14.2757 8.51663C12.8974 8.51663 11.7336 9.46552 11.3955 10.7541V10.7563L22.5132 21.9984Z" fill="#32A472" style="fill:color(display-p3 0.1961 0.6431 0.4471);fill-opacity:1"></path><path d="M50.1127 11.7716C50.1127 12.6503 49.8548 13.3494 49.3412 13.871C48.756 14.4912 47.9932 14.8023 47.057 14.8023C46.1597 14.8023 45.3947 14.489 44.7684 13.8578C44.1399 13.2289 43.8257 12.4487 43.8257 11.5174C43.8257 10.586 44.1399 9.80585 44.7684 9.17691C45.3969 8.54796 46.1597 8.2324 47.057 8.2324C47.5034 8.2324 47.9282 8.32005 48.3334 8.49537C48.7387 8.67068 49.0638 8.90517 49.3065 9.19882L48.7604 9.75106C48.3486 9.25361 47.7808 9.00378 47.057 9.00378C46.4025 9.00378 45.8368 9.23608 45.3579 9.70285C44.8789 10.1696 44.6405 10.7723 44.6405 11.5174C44.6405 12.2603 44.8789 12.8651 45.3579 13.3319C45.8368 13.7987 46.4025 14.031 47.057 14.031C47.7526 14.031 48.3313 13.7965 48.795 13.3275C49.0963 13.0229 49.2697 12.5977 49.3173 12.0543H47.0591V11.2982H50.0737C50.0975 11.4604 50.1127 11.6182 50.1127 11.7716Z" fill="black" style="fill:black;fill-opacity:1"></path><path d="M54.8912 9.14372H52.0587V11.1379H54.6116V11.894H52.0565V13.8882H54.889V14.6618H51.2568V8.37233H54.889V9.14372" fill="black" style="fill:black;fill-opacity:1"></path><path d="M58.2609 14.6598H57.4612V9.1439H55.7231V8.37032H59.9968V9.1439H58.2588L58.2609 14.6598Z" fill="black" style="fill:black;fill-opacity:1"></path><path d="M63.0918 14.6598V8.37032H63.8915V14.6598H63.0918Z" fill="black" style="fill:black;fill-opacity:1"></path><path d="M67.4347 14.6598H66.6351V9.1439H64.897V8.37032H69.1707V9.1439H67.4326L67.4347 14.6598Z" fill="black" style="fill:black;fill-opacity:1"></path><path d="M73.2928 13.3209C73.7544 13.7921 74.3157 14.0287 74.9832 14.0287C75.6485 14.0287 76.2142 13.7942 76.6736 13.3209C77.1352 12.8497 77.365 12.2471 77.365 11.5151C77.365 10.7832 77.1331 10.1806 76.6736 9.70939C76.2142 9.23823 75.6507 9.00156 74.9832 9.00156C74.3179 9.00156 73.7544 9.23604 73.2928 9.70939C72.8334 10.1806 72.6015 10.7832 72.6015 11.5151C72.6015 12.2471 72.8334 12.8497 73.2928 13.3209ZM77.2653 13.849C76.6541 14.4845 75.8934 14.8023 74.9832 14.8023C74.0752 14.8023 73.3145 14.4845 72.7033 13.849C72.0922 13.2135 71.7866 12.4355 71.7866 11.5173C71.7866 10.5991 72.0922 9.82116 72.7033 9.18564C73.3145 8.55012 74.0752 8.23236 74.9832 8.23236C75.8869 8.23236 76.6455 8.55231 77.2609 9.19002C77.8742 9.82773 78.182 10.6035 78.182 11.5173C78.1798 12.4355 77.8742 13.2135 77.2653 13.849Z" fill="black" style="fill:black;fill-opacity:1"></path><path d="M79.3022 14.6596V8.37014H80.2753L83.2985 13.2636H83.3332L83.2985 12.0518V8.37233H84.0982V14.6618H83.2639L80.1019 9.53161H80.0673L80.1019 10.7435V14.6618L79.3022 14.6596Z" fill="black" style="fill:black;fill-opacity:1"></path><path d="M111.815 32.4817H113.748V19.3769H111.815V32.4817ZM129.239 24.0972L127.02 29.7775H126.952L124.651 24.095H122.566L126.02 32.0368L124.053 36.4548H126.07L131.389 24.0972H129.239ZM118.266 30.9915C117.633 30.9915 116.749 30.6716 116.749 29.8783C116.749 28.8658 117.85 28.4779 118.799 28.4779C119.649 28.4779 120.05 28.6642 120.566 28.9162C120.418 30.1325 119.385 30.9915 118.266 30.9915ZM118.5 23.8102C117.1 23.8102 115.648 24.4347 115.048 25.8175L116.767 26.5429C117.133 25.8175 117.818 25.583 118.533 25.583C119.534 25.583 120.55 26.1901 120.568 27.2682V27.4041C120.217 27.2025 119.467 26.8979 118.55 26.8979C116.699 26.8979 114.816 27.9257 114.816 29.8476C114.816 31.6007 116.333 32.7315 118.034 32.7315C119.335 32.7315 120.052 32.142 120.503 31.4495H120.57V32.462H122.438V27.437C122.436 25.1075 120.717 23.8102 118.5 23.8102ZM106.546 25.6926H103.796V21.2001H106.546C107.992 21.2001 108.813 22.412 108.813 23.4464C108.813 24.461 107.992 25.6926 106.546 25.6926ZM106.496 19.3747H101.861V32.4795H103.796V27.5137H106.496C108.642 27.5137 110.748 25.9446 110.748 23.4442C110.748 20.9437 108.64 19.3747 106.496 19.3747ZM81.2204 30.9959C79.8854 30.9959 78.7649 29.8651 78.7649 28.3114C78.7649 26.7401 79.8832 25.5918 81.2204 25.5918C82.5402 25.5918 83.5761 26.7401 83.5761 28.3114C83.5739 29.8629 82.538 30.9959 81.2204 30.9959ZM83.4417 24.8314H83.3745C82.9411 24.3076 82.1046 23.8343 81.0535 23.8343C78.8495 23.8343 76.8275 25.7934 76.8275 28.3092C76.8275 30.8096 78.8495 32.7512 81.0535 32.7512C82.1067 32.7512 82.9411 32.2779 83.3745 31.7388H83.4417V32.3809C83.4417 34.0858 82.5402 34.9997 81.086 34.9997C79.9005 34.9997 79.1659 34.1384 78.8646 33.4131L77.1786 34.1231C77.664 35.3043 78.9492 36.7572 81.086 36.7572C83.3572 36.7572 85.2773 35.4073 85.2773 32.1135V24.1082H83.4396V24.8314H83.4417ZM86.6145 32.4817H88.552V19.3769H86.6145V32.4817ZM91.4083 28.158C91.3585 26.4355 92.7281 25.5567 93.7142 25.5567C94.4835 25.5567 95.1337 25.9446 95.3504 26.5034L91.4083 28.158ZM97.4201 26.6722C97.0516 25.6751 95.9334 23.8343 93.6448 23.8343C91.3736 23.8343 89.486 25.6422 89.486 28.2917C89.486 30.7921 91.3563 32.7512 93.8616 32.7512C95.8835 32.7512 97.0517 31.5021 97.5349 30.7746L96.0309 29.7621C95.5303 30.505 94.8455 30.9959 93.8594 30.9959C92.8733 30.9959 92.1733 30.5401 91.7225 29.6438L97.6173 27.1784L97.4201 26.6722ZM50.4485 25.2017V27.0929H54.9237C54.7894 28.1558 54.4404 28.9337 53.9051 29.475C53.2528 30.1347 52.2342 30.86 50.4485 30.86C47.6918 30.86 45.5376 28.6138 45.5376 25.8285C45.5376 23.041 47.6918 20.7947 50.4485 20.7947C51.9352 20.7947 53.0209 21.3864 53.8228 22.1468L55.1426 20.8123C54.0243 19.7319 52.5377 18.9035 50.4485 18.9035C46.6732 18.9035 43.5005 22.011 43.5005 25.8285C43.5005 29.646 46.6732 32.7534 50.4485 32.7534C52.4856 32.7534 54.0222 32.0785 55.225 30.8118C56.4603 29.5627 56.846 27.8052 56.846 26.3873C56.846 25.949 56.8135 25.5436 56.7463 25.2061H50.4485V25.2017ZM61.9346 30.9959C60.5974 30.9959 59.4466 29.8804 59.4466 28.2938C59.4466 26.6897 60.5996 25.5918 61.9346 25.5918C63.2696 25.5918 64.4225 26.6897 64.4225 28.2938C64.4225 29.8804 63.2717 30.9959 61.9346 30.9959ZM61.9346 23.8343C59.4965 23.8343 57.5092 25.7079 57.5092 28.2917C57.5092 30.8578 59.4965 32.7512 61.9346 32.7512C64.3727 32.7512 66.36 30.86 66.36 28.2917C66.36 25.7079 64.3727 23.8343 61.9346 23.8343ZM71.5894 30.9959C70.2522 30.9959 69.1015 29.8804 69.1015 28.2938C69.1015 26.6897 70.2544 25.5918 71.5894 25.5918C72.9244 25.5918 74.0773 26.6897 74.0773 28.2938C74.0773 29.8804 72.9265 30.9959 71.5894 30.9959ZM71.5894 23.8343C69.1513 23.8343 67.164 25.7079 67.164 28.2917C67.164 30.8578 69.1513 32.7512 71.5894 32.7512C74.0275 32.7512 76.0148 30.86 76.0148 28.2917C76.0148 25.7079 74.0275 23.8343 71.5894 23.8343Z" fill="black" style="fill:black;fill-opacity:1"></path><svg width="142" height="44" viewBox="0 0 142 44" fill="none" xmlns="http://www.w3.org/2000/svg"><rect x="0.534769" y="0.580668" width="140.793" height="42.7719" rx="4.61266" fill="white" stroke="#E3E3E3" style="fill:white;fill-opacity:1;stroke:color(display-p3 0.8902 0.8902 0.8902);stroke-opacity:1" stroke-width="0.838665"></rect><path d="M22.4305 21.3929L11.3931 33.2398C11.3931 33.242 11.3952 33.2442 11.3952 33.2464C11.7333 34.5327 12.8949 35.4794 14.2754 35.4794C14.8259 35.4794 15.3438 35.3282 15.7881 35.0653L15.8228 35.0433L28.2473 27.7941L22.4305 21.3929Z" fill="#D8432B" style="fill:color(display-p3 0.8471 0.2627 0.1686);fill-opacity:1"></path><path d="M33.5959 19.3769L33.5851 19.3703L28.2213 16.2256L22.1792 21.6626L28.243 27.7943L33.5786 24.6802C34.5148 24.1696 35.1498 23.1725 35.1498 22.022C35.1498 20.8802 34.5235 19.8897 33.5959 19.3769Z" fill="#FBC81D" style="fill:color(display-p3 0.9843 0.7843 0.1137);fill-opacity:1"></path><path d="M11.3934 10.7578C11.3262 11.0054 11.2915 11.264 11.2915 11.5335V32.464C11.2915 32.7336 11.3262 32.9922 11.3934 33.2398L22.8101 21.6975L11.3934 10.7578Z" fill="#3371C1" style="fill:color(display-p3 0.2000 0.4431 0.7569);fill-opacity:1"></path><path d="M22.5132 21.9984L28.2259 16.2239L15.8166 8.94834C15.3658 8.67441 14.8392 8.51663 14.2757 8.51663C12.8974 8.51663 11.7336 9.46552 11.3955 10.7541V10.7563L22.5132 21.9984Z" fill="#32A472" style="fill:color(display-p3 0.1961 0.6431 0.4471);fill-opacity:1"></path><path d="M50.1127 11.7716C50.1127 12.6503 49.8548 13.3494 49.3412 13.871C48.756 14.4912 47.9932 14.8023 47.057 14.8023C46.1597 14.8023 45.3947 14.489 44.7684 13.8578C44.1399 13.2289 43.8257 12.4487 43.8257 11.5174C43.8257 10.586 44.1399 9.80585 44.7684 9.17691C45.3969 8.54796 46.1597 8.2324 47.057 8.2324C47.5034 8.2324 47.9282 8.32005 48.3334 8.49537C48.7387 8.67068 49.0638 8.90517 49.3065 9.19882L48.7604 9.75106C48.3486 9.25361 47.7808 9.00378 47.057 9.00378C46.4025 9.00378 45.8368 9.23608 45.3579 9.70285C44.8789 10.1696 44.6405 10.7723 44.6405 11.5174C44.6405 12.2603 44.8789 12.8651 45.3579 13.3319C45.8368 13.7987 46.4025 14.031 47.057 14.031C47.7526 14.031 48.3313 13.7965 48.795 13.3275C49.0963 13.0229 49.2697 12.5977 49.3173 12.0543H47.0591V11.2982H50.0737C50.0975 11.4604 50.1127 11.6182 50.1127 11.7716Z" fill="black" style="fill:black;fill-opacity:1"></path><path d="M54.8912 9.14372H52.0587V11.1379H54.6116V11.894H52.0565V13.8882H54.889V14.6618H51.2568V8.37233H54.889V9.14372" fill="black" style="fill:black;fill-opacity:1"></path><path d="M58.2609 14.6598H57.4612V9.1439H55.7231V8.37032H59.9968V9.1439H58.2588L58.2609 14.6598Z" fill="black" style="fill:black;fill-opacity:1"></path><path d="M63.0918 14.6598V8.37032H63.8915V14.6598H63.0918Z" fill="black" style="fill:black;fill-opacity:1"></path><path d="M67.4347 14.6598H66.6351V9.1439H64.897V8.37032H69.1707V9.1439H67.4326L67.4347 14.6598Z" fill="black" style="fill:black;fill-opacity:1"></path><path d="M73.2928 13.3209C73.7544 13.7921 74.3157 14.0287 74.9832 14.0287C75.6485 14.0287 76.2142 13.7942 76.6736 13.3209C77.1352 12.8497 77.365 12.2471 77.365 11.5151C77.365 10.7832 77.1331 10.1806 76.6736 9.70939C76.2142 9.23823 75.6507 9.00156 74.9832 9.00156C74.3179 9.00156 73.7544 9.23604 73.2928 9.70939C72.8334 10.1806 72.6015 10.7832 72.6015 11.5151C72.6015 12.2471 72.8334 12.8497 73.2928 13.3209ZM77.2653 13.849C76.6541 14.4845 75.8934 14.8023 74.9832 14.8023C74.0752 14.8023 73.3145 14.4845 72.7033 13.849C72.0922 13.2135 71.7866 12.4355 71.7866 11.5173C71.7866 10.5991 72.0922 9.82116 72.7033 9.18564C73.3145 8.55012 74.0752 8.23236 74.9832 8.23236C75.8869 8.23236 76.6455 8.55231 77.2609 9.19002C77.8742 9.82773 78.182 10.6035 78.182 11.5173C78.1798 12.4355 77.8742 13.2135 77.2653 13.849Z" fill="black" style="fill:black;fill-opacity:1"></path><path d="M79.3022 14.6596V8.37014H80.2753L83.2985 13.2636H83.3332L83.2985 12.0518V8.37233H84.0982V14.6618H83.2639L80.1019 9.53161H80.0673L80.1019 10.7435V14.6618L79.3022 14.6596Z" fill="black" style="fill:black;fill-opacity:1"></path><path d="M111.815 32.4817H113.748V19.3769H111.815V32.4817ZM129.239 24.0972L127.02 29.7775H126.952L124.651 24.095H122.566L126.02 32.0368L124.053 36.4548H126.07L131.389 24.0972H129.239ZM118.266 30.9915C117.633 30.9915 116.749 30.6716 116.749 29.8783C116.749 28.8658 117.85 28.4779 118.799 28.4779C119.649 28.4779 120.05 28.6642 120.566 28.9162C120.418 30.1325 119.385 30.9915 118.266 30.9915ZM118.5 23.8102C117.1 23.8102 115.648 24.4347 115.048 25.8175L116.767 26.5429C117.133 25.8175 117.818 25.583 118.533 25.583C119.534 25.583 120.55 26.1901 120.568 27.2682V27.4041C120.217 27.2025 119.467 26.8979 118.55 26.8979C116.699 26.8979 114.816 27.9257 114.816 29.8476C114.816 31.6007 116.333 32.7315 118.034 32.7315C119.335 32.7315 120.052 32.142 120.503 31.4495H120.57V32.462H122.438V27.437C122.436 25.1075 120.717 23.8102 118.5 23.8102ZM106.546 25.6926H103.796V21.2001H106.546C107.992 21.2001 108.813 22.412 108.813 23.4464C108.813 24.461 107.992 25.6926 106.546 25.6926ZM106.496 19.3747H101.861V32.4795H103.796V27.5137H106.496C108.642 27.5137 110.748 25.9446 110.748 23.4442C110.748 20.9437 108.64 19.3747 106.496 19.3747ZM81.2204 30.9959C79.8854 30.9959 78.7649 29.8651 78.7649 28.3114C78.7649 26.7401 79.8832 25.5918 81.2204 25.5918C82.5402 25.5918 83.5761 26.7401 83.5761 28.3114C83.5739 29.8629 82.538 30.9959 81.2204 30.9959ZM83.4417 24.8314H83.3745C82.9411 24.3076 82.1046 23.8343 81.0535 23.8343C78.8495 23.8343 76.8275 25.7934 76.8275 28.3092C76.8275 30.8096 78.8495 32.7512 81.0535 32.7512C82.1067 32.7512 82.9411 32.2779 83.3745 31.7388H83.4417V32.3809C83.4417 34.0858 82.5402 34.9997 81.086 34.9997C79.9005 34.9997 79.1659 34.1384 78.8646 33.4131L77.1786 34.1231C77.664 35.3043 78.9492 36.7572 81.086 36.7572C83.3572 36.7572 85.2773 35.4073 85.2773 32.1135V24.1082H83.4396V24.8314H83.4417ZM86.6145 32.4817H88.552V19.3769H86.6145V32.4817ZM91.4083 28.158C91.3585 26.4355 92.7281 25.5567 93.7142 25.5567C94.4835 25.5567 95.1337 25.9446 95.3504 26.5034L91.4083 28.158ZM97.4201 26.6722C97.0516 25.6751 95.9334 23.8343 93.6448 23.8343C91.3736 23.8343 89.486 25.6422 89.486 28.2917C89.486 30.7921 91.3563 32.7512 93.8616 32.7512C95.8835 32.7512 97.0517 31.5021 97.5349 30.7746L96.0309 29.7621C95.5303 30.505 94.8455 30.9959 93.8594 30.9959C92.8733 30.9959 92.1733 30.5401 91.7225 29.6438L97.6173 27.1784L97.4201 26.6722ZM50.4485 25.2017V27.0929H54.9237C54.7894 28.1558 54.4404 28.9337 53.9051 29.475C53.2528 30.1347 52.2342 30.86 50.4485 30.86C47.6918 30.86 45.5376 28.6138 45.5376 25.8285C45.5376 23.041 47.6918 20.7947 50.4485 20.7947C51.9352 20.7947 53.0209 21.3864 53.8228 22.1468L55.1426 20.8123C54.0243 19.7319 52.5377 18.9035 50.4485 18.9035C46.6732 18.9035 43.5005 22.011 43.5005 25.8285C43.5005 29.646 46.6732 32.7534 50.4485 32.7534C52.4856 32.7534 54.0222 32.0785 55.225 30.8118C56.4603 29.5627 56.846 27.8052 56.846 26.3873C56.846 25.949 56.8135 25.5436 56.7463 25.2061H50.4485V25.2017ZM61.9346 30.9959C60.5974 30.9959 59.4466 29.8804 59.4466 28.2938C59.4466 26.6897 60.5996 25.5918 61.9346 25.5918C63.2696 25.5918 64.4225 26.6897 64.4225 28.2938C64.4225 29.8804 63.2717 30.9959 61.9346 30.9959ZM61.9346 23.8343C59.4965 23.8343 57.5092 25.7079 57.5092 28.2917C57.5092 30.8578 59.4965 32.7512 61.9346 32.7512C64.3727 32.7512 66.36 30.86 66.36 28.2917C66.36 25.7079 64.3727 23.8343 61.9346 23.8343ZM71.5894 30.9959C70.2522 30.9959 69.1015 29.8804 69.1015 28.2938C69.1015 26.6897 70.2544 25.5918 71.5894 25.5918C72.9244 25.5918 74.0773 26.6897 74.0773 28.2938C74.0773 29.8804 72.9265 30.9959 71.5894 30.9959ZM71.5894 23.8343C69.1513 23.8343 67.164 25.7079 67.164 28.2917C67.164 30.8578 69.1513 32.7512 71.5894 32.7512C74.0275 32.7512 76.0148 30.86 76.0148 28.2917C76.0148 25.7079 74.0275 23.8343 71.5894 23.8343Z" fill="black" style="fill:black;fill-opacity:1"></path></svg></svg>