<svg width="92" height="92" viewBox="0 0 92 92" fill="none" xmlns="http://www.w3.org/2000/svg"><g clip-path="url(#clip0_11475_22538)"><path d="M0 6C0 2.68629 2.68629 0 6 0H86C89.3137 0 92 2.68629 92 6V86C92 89.3137 89.3137 92 86 92H6C2.68629 92 0 89.3137 0 86V6Z" fill="currentColor"></path><path d="M17.4866 10.1484C13.354 10.1484 10 13.5024 10 17.635C10 21.7676 13.354 25.1215 17.4866 25.1215C21.6193 25.1215 24.9733 21.7676 24.9733 17.635C24.9733 13.5024 21.6193 10.1484 17.4866 10.1484ZM17.4866 22.8756C14.5968 22.8756 12.246 20.5248 12.246 17.635C12.246 14.7452 14.5968 12.3944 17.4866 12.3944C20.3765 12.3944 22.7273 14.7452 22.7273 17.635C22.7273 20.5248 20.3765 22.8756 17.4866 22.8756Z" fill="white" style="fill:white;fill-opacity:1"></path><path d="M74.2149 10.1484C70.0823 10.1484 66.7283 13.5024 66.7283 17.635C66.7283 21.7676 70.0823 25.1215 74.2149 25.1215C78.3475 25.1215 81.7016 21.7676 81.7016 17.635C81.7016 13.5024 78.3475 10.1484 74.2149 10.1484ZM74.2149 22.8756C71.3251 22.8756 68.9743 20.5248 68.9743 17.635C68.9743 14.7452 71.3251 12.3944 74.2149 12.3944C77.1048 12.3944 79.4556 14.7452 79.4556 17.635C79.4556 20.5248 77.1048 22.8756 74.2149 22.8756Z" fill="white" style="fill:white;fill-opacity:1"></path><path d="M17.4866 66.875C13.354 66.875 10 70.229 10 74.3616C10 78.4941 13.354 81.8481 17.4866 81.8481C21.6193 81.8481 24.9733 78.4941 24.9733 74.3616C24.9733 70.229 21.6193 66.875 17.4866 66.875ZM17.4866 79.6021C14.5968 79.6021 12.246 77.2514 12.246 74.3616C12.246 71.4717 14.5968 69.121 17.4866 69.121C20.3765 69.121 22.7273 71.4717 22.7273 74.3616C22.7273 77.2514 20.3765 79.6021 17.4866 79.6021Z" fill="white" style="fill:white;fill-opacity:1"></path><path d="M17.4224 20.7803C19.1945 20.7803 20.631 19.3438 20.631 17.5718C20.631 15.7998 19.1945 14.3633 17.4224 14.3633C15.6504 14.3633 14.2139 15.7998 14.2139 17.5718C14.2139 19.3438 15.6504 20.7803 17.4224 20.7803Z" fill="white" style="fill:white;fill-opacity:1"></path><path d="M74.1485 20.7803C75.9205 20.7803 77.3571 19.3438 77.3571 17.5718C77.3571 15.7998 75.9205 14.3633 74.1485 14.3633C72.3765 14.3633 70.9399 15.7998 70.9399 17.5718C70.9399 19.3438 72.3765 20.7803 74.1485 20.7803Z" fill="white" style="fill:white;fill-opacity:1"></path><path d="M17.4224 77.5069C19.1945 77.5069 20.631 76.0704 20.631 74.2984C20.631 72.5263 19.1945 71.0898 17.4224 71.0898C15.6504 71.0898 14.2139 72.5263 14.2139 74.2984C14.2139 76.0704 15.6504 77.5069 17.4224 77.5069Z" fill="white" style="fill:white;fill-opacity:1"></path><path d="M43.5261 46.0067C43.6479 45.9009 43.7009 45.565 43.626 45.4125C43.3355 44.8246 42.9483 44.2864 42.6641 43.6984C42.4017 43.154 42.1051 43.1291 41.5929 43.3904C38.4042 45.0299 37.9826 49.8175 40.8871 52.216C43.3543 54.2536 46.1369 54.3345 48.9352 53.0622C53.0296 51.1988 53.9727 46.0658 52.0271 42.4447C50.3999 39.4178 47.6516 38.217 44.8315 38.0957C42.7359 38.0926 41.1119 38.5157 39.9002 39.2187C39.491 39.4552 39.3162 39.6854 39.641 40.1333C39.9158 40.5129 40.1219 40.9422 40.3561 41.3497C40.9558 42.4012 40.9558 42.4043 42.0488 41.9501C45.4592 40.5347 49.0164 42.5661 49.3006 46.0876C49.5067 48.6447 47.5392 50.6233 44.9814 50.4335C43.7915 50.3464 42.8608 49.6713 42.5423 48.6696C42.2175 47.6337 42.5142 46.8777 43.5261 46.0067Z" fill="white" style="fill:white;fill-opacity:1"></path><path d="M27.4545 10H29.6364V12.1818H27.4545V10Z" fill="white" style="fill:white;fill-opacity:1"></path><path d="M31.8182 10H34V12.1818H31.8182V10Z" fill="white" style="fill:white;fill-opacity:1"></path><path d="M42.7273 10H44.9091V12.1818H42.7273V10Z" fill="white" style="fill:white;fill-opacity:1"></path><path d="M49.2727 10H51.4545V12.1818H49.2727V10Z" fill="white" style="fill:white;fill-opacity:1"></path><path d="M53.6364 10H55.8182V12.1818H53.6364V10Z" fill="white" style="fill:white;fill-opacity:1"></path><path d="M55.8182 10H58V12.1818H55.8182V10Z" fill="white" style="fill:white;fill-opacity:1"></path><path d="M60.1818 10H62.3636V12.1818H60.1818V10Z" fill="white" style="fill:white;fill-opacity:1"></path><path d="M62.3636 10H64.5455V12.1818H62.3636V10Z" fill="white" style="fill:white;fill-opacity:1"></path><path d="M27.4545 12.1818H29.6364V14.3636H27.4545V12.1818Z" fill="white" style="fill:white;fill-opacity:1"></path><path d="M34 12.1818H36.1818V14.3636H34V12.1818Z" fill="white" style="fill:white;fill-opacity:1"></path><path d="M36.1818 12.1818H38.3636V14.3636H36.1818V12.1818Z" fill="white" style="fill:white;fill-opacity:1"></path><path d="M55.8182 12.1818H58V14.3636H55.8182V12.1818Z" fill="white" style="fill:white;fill-opacity:1"></path><path d="M62.3636 12.1818H64.5455V14.3636H62.3636V12.1818Z" fill="white" style="fill:white;fill-opacity:1"></path><path d="M27.4545 14.3636H29.6364V16.5455H27.4545V14.3636Z" fill="white" style="fill:white;fill-opacity:1"></path><path d="M29.6364 14.3636H31.8182V16.5455H29.6364V14.3636Z" fill="white" style="fill:white;fill-opacity:1"></path><path d="M31.8182 14.3636H34V16.5455H31.8182V14.3636Z" fill="white" style="fill:white;fill-opacity:1"></path><path d="M42.7273 14.3636H44.9091V16.5455H42.7273V14.3636Z" fill="white" style="fill:white;fill-opacity:1"></path><path d="M44.9091 14.3636H47.0909V16.5455H44.9091V14.3636Z" fill="white" style="fill:white;fill-opacity:1"></path><path d="M55.8182 14.3636H58V16.5455H55.8182V14.3636Z" fill="white" style="fill:white;fill-opacity:1"></path><path d="M60.1818 14.3636H62.3636V16.5455H60.1818V14.3636Z" fill="white" style="fill:white;fill-opacity:1"></path><path d="M62.3636 14.3636H64.5455V16.5455H62.3636V14.3636Z" fill="white" style="fill:white;fill-opacity:1"></path><path d="M29.6364 16.5455H31.8182V18.7273H29.6364V16.5455Z" fill="white" style="fill:white;fill-opacity:1"></path><path d="M38.3636 16.5455H40.5455V18.7273H38.3636V16.5455Z" fill="white" style="fill:white;fill-opacity:1"></path><path d="M40.5455 16.5455H42.7273V18.7273H40.5455V16.5455Z" fill="white" style="fill:white;fill-opacity:1"></path><path d="M47.0909 16.5455H49.2727V18.7273H47.0909V16.5455Z" fill="white" style="fill:white;fill-opacity:1"></path><path d="M53.6364 16.5455H55.8182V18.7273H53.6364V16.5455Z" fill="white" style="fill:white;fill-opacity:1"></path><path d="M60.1818 16.5455H62.3636V18.7273H60.1818V16.5455Z" fill="white" style="fill:white;fill-opacity:1"></path><path d="M62.3636 16.5455H64.5455V18.7273H62.3636V16.5455Z" fill="white" style="fill:white;fill-opacity:1"></path><path d="M34 18.7273H36.1818V20.9091H34V18.7273Z" fill="white" style="fill:white;fill-opacity:1"></path><path d="M51.4545 18.7273H53.6364V20.9091H51.4545V18.7273Z" fill="white" style="fill:white;fill-opacity:1"></path><path d="M55.8182 18.7273H58V20.9091H55.8182V18.7273Z" fill="white" style="fill:white;fill-opacity:1"></path><path d="M27.4545 20.9091H29.6364V23.0909H27.4545V20.9091Z" fill="white" style="fill:white;fill-opacity:1"></path><path d="M29.6364 20.9091H31.8182V23.0909H29.6364V20.9091Z" fill="white" style="fill:white;fill-opacity:1"></path><path d="M31.8182 20.9091H34V23.0909H31.8182V20.9091Z" fill="white" style="fill:white;fill-opacity:1"></path><path d="M42.7273 20.9091H44.9091V23.0909H42.7273V20.9091Z" fill="white" style="fill:white;fill-opacity:1"></path><path d="M51.4545 20.9091H53.6364V23.0909H51.4545V20.9091Z" fill="white" style="fill:white;fill-opacity:1"></path><path d="M53.6364 20.9091H55.8182V23.0909H53.6364V20.9091Z" fill="white" style="fill:white;fill-opacity:1"></path><path d="M55.8182 20.9091H58V23.0909H55.8182V20.9091Z" fill="white" style="fill:white;fill-opacity:1"></path><path d="M60.1818 20.9091H62.3636V23.0909H60.1818V20.9091Z" fill="white" style="fill:white;fill-opacity:1"></path><path d="M62.3636 20.9091H64.5455V23.0909H62.3636V20.9091Z" fill="white" style="fill:white;fill-opacity:1"></path><path d="M27.4545 23.0909H29.6364V25.2727H27.4545V23.0909Z" fill="white" style="fill:white;fill-opacity:1"></path><path d="M31.8182 23.0909H34V25.2727H31.8182V23.0909Z" fill="white" style="fill:white;fill-opacity:1"></path><path d="M36.1818 23.0909H38.3636V25.2727H36.1818V23.0909Z" fill="white" style="fill:white;fill-opacity:1"></path><path d="M40.5455 23.0909H42.7273V25.2727H40.5455V23.0909Z" fill="white" style="fill:white;fill-opacity:1"></path><path d="M44.9091 23.0909H47.0909V25.2727H44.9091V23.0909Z" fill="white" style="fill:white;fill-opacity:1"></path><path d="M49.2727 23.0909H51.4545V25.2727H49.2727V23.0909Z" fill="white" style="fill:white;fill-opacity:1"></path><path d="M53.6364 23.0909H55.8182V25.2727H53.6364V23.0909Z" fill="white" style="fill:white;fill-opacity:1"></path><path d="M58 23.0909H60.1818V25.2727H58V23.0909Z" fill="white" style="fill:white;fill-opacity:1"></path><path d="M62.3636 23.0909H64.5455V25.2727H62.3636V23.0909Z" fill="white" style="fill:white;fill-opacity:1"></path><path d="M27.4545 25.2727H29.6364V27.4545H27.4545V25.2727Z" fill="white" style="fill:white;fill-opacity:1"></path><path d="M31.8182 25.2727H34V27.4545H31.8182V25.2727Z" fill="white" style="fill:white;fill-opacity:1"></path><path d="M38.3636 25.2727H40.5455V27.4545H38.3636V25.2727Z" fill="white" style="fill:white;fill-opacity:1"></path><path d="M44.9091 25.2727H47.0909V27.4545H44.9091V25.2727Z" fill="white" style="fill:white;fill-opacity:1"></path><path d="M49.2727 25.2727H51.4545V27.4545H49.2727V25.2727Z" fill="white" style="fill:white;fill-opacity:1"></path><path d="M51.4545 25.2727H53.6364V27.4545H51.4545V25.2727Z" fill="white" style="fill:white;fill-opacity:1"></path><path d="M55.8182 25.2727H58V27.4545H55.8182V25.2727Z" fill="white" style="fill:white;fill-opacity:1"></path><path d="M58 25.2727H60.1818V27.4545H58V25.2727Z" fill="white" style="fill:white;fill-opacity:1"></path><path d="M60.1818 25.2727H62.3636V27.4545H60.1818V25.2727Z" fill="white" style="fill:white;fill-opacity:1"></path><path d="M14.3636 27.4545H16.5455V29.6364H14.3636V27.4545Z" fill="white" style="fill:white;fill-opacity:1"></path><path d="M16.5455 27.4545H18.7273V29.6364H16.5455V27.4545Z" fill="white" style="fill:white;fill-opacity:1"></path><path d="M18.7273 27.4545H20.9091V29.6364H18.7273V27.4545Z" fill="white" style="fill:white;fill-opacity:1"></path><path d="M23.0909 27.4545H25.2727V29.6364H23.0909V27.4545Z" fill="white" style="fill:white;fill-opacity:1"></path><path d="M27.4545 27.4545H29.6364V29.6364H27.4545V27.4545Z" fill="white" style="fill:white;fill-opacity:1"></path><path d="M34 27.4545H36.1818V29.6364H34V27.4545Z" fill="white" style="fill:white;fill-opacity:1"></path><path d="M38.3636 27.4545H40.5455V29.6364H38.3636V27.4545Z" fill="white" style="fill:white;fill-opacity:1"></path><path d="M40.5455 27.4545H42.7273V29.6364H40.5455V27.4545Z" fill="white" style="fill:white;fill-opacity:1"></path><path d="M42.7273 27.4545H44.9091V29.6364H42.7273V27.4545Z" fill="white" style="fill:white;fill-opacity:1"></path><path d="M47.0909 27.4545H49.2727V29.6364H47.0909V27.4545Z" fill="white" style="fill:white;fill-opacity:1"></path><path d="M49.2727 27.4545H51.4545V29.6364H49.2727V27.4545Z" fill="white" style="fill:white;fill-opacity:1"></path><path d="M58 27.4545H60.1818V29.6364H58V27.4545Z" fill="white" style="fill:white;fill-opacity:1"></path><path d="M60.1818 27.4545H62.3636V29.6364H60.1818V27.4545Z" fill="white" style="fill:white;fill-opacity:1"></path><path d="M62.3636 27.4545H64.5455V29.6364H62.3636V27.4545Z" fill="white" style="fill:white;fill-opacity:1"></path><path d="M64.5455 27.4545H66.7273V29.6364H64.5455V27.4545Z" fill="white" style="fill:white;fill-opacity:1"></path><path d="M66.7273 27.4545H68.9091V29.6364H66.7273V27.4545Z" fill="white" style="fill:white;fill-opacity:1"></path><path d="M68.9091 27.4545H71.0909V29.6364H68.9091V27.4545Z" fill="white" style="fill:white;fill-opacity:1"></path><path d="M75.4545 27.4545H77.6364V29.6364H75.4545V27.4545Z" fill="white" style="fill:white;fill-opacity:1"></path><path d="M77.6364 27.4545H79.8182V29.6364H77.6364V27.4545Z" fill="white" style="fill:white;fill-opacity:1"></path><path d="M79.8182 27.4545H82V29.6364H79.8182V27.4545Z" fill="white" style="fill:white;fill-opacity:1"></path><path d="M20.9091 29.6364H23.0909V31.8182H20.9091V29.6364Z" fill="white" style="fill:white;fill-opacity:1"></path><path d="M29.6364 29.6364H31.8182V31.8182H29.6364V29.6364Z" fill="white" style="fill:white;fill-opacity:1"></path><path d="M31.8182 29.6364H34V31.8182H31.8182V29.6364Z" fill="white" style="fill:white;fill-opacity:1"></path><path d="M36.1818 29.6364H38.3636V31.8182H36.1818V29.6364Z" fill="white" style="fill:white;fill-opacity:1"></path><path d="M38.3636 29.6364H40.5455V31.8182H38.3636V29.6364Z" fill="white" style="fill:white;fill-opacity:1"></path><path d="M40.5455 29.6364H42.7273V31.8182H40.5455V29.6364Z" fill="white" style="fill:white;fill-opacity:1"></path><path d="M44.9091 29.6364H47.0909V31.8182H44.9091V29.6364Z" fill="white" style="fill:white;fill-opacity:1"></path><path d="M47.0909 29.6364H49.2727V31.8182H47.0909V29.6364Z" fill="white" style="fill:white;fill-opacity:1"></path><path d="M49.2727 29.6364H51.4545V31.8182H49.2727V29.6364Z" fill="white" style="fill:white;fill-opacity:1"></path><path d="M51.4545 29.6364H53.6364V31.8182H51.4545V29.6364Z" fill="white" style="fill:white;fill-opacity:1"></path><path d="M55.8182 29.6364H58V31.8182H55.8182V29.6364Z" fill="white" style="fill:white;fill-opacity:1"></path><path d="M64.5455 29.6364H66.7273V31.8182H64.5455V29.6364Z" fill="white" style="fill:white;fill-opacity:1"></path><path d="M66.7273 29.6364H68.9091V31.8182H66.7273V29.6364Z" fill="white" style="fill:white;fill-opacity:1"></path><path d="M75.4545 29.6364H77.6364V31.8182H75.4545V29.6364Z" fill="white" style="fill:white;fill-opacity:1"></path><path d="M79.8182 29.6364H82V31.8182H79.8182V29.6364Z" fill="white" style="fill:white;fill-opacity:1"></path><path d="M10 31.8182H12.1818V34H10V31.8182Z" fill="white" style="fill:white;fill-opacity:1"></path><path d="M12.1818 31.8182H14.3636V34H12.1818V31.8182Z" fill="white" style="fill:white;fill-opacity:1"></path><path d="M14.3636 31.8182H16.5455V34H14.3636V31.8182Z" fill="white" style="fill:white;fill-opacity:1"></path><path d="M20.9091 31.8182H23.0909V34H20.9091V31.8182Z" fill="white" style="fill:white;fill-opacity:1"></path><path d="M23.0909 31.8182H25.2727V34H23.0909V31.8182Z" fill="white" style="fill:white;fill-opacity:1"></path><path d="M29.6364 31.8182H31.8182V34H29.6364V31.8182Z" fill="white" style="fill:white;fill-opacity:1"></path><path d="M34 31.8182H36.1818V34H34V31.8182Z" fill="white" style="fill:white;fill-opacity:1"></path><path d="M38.3636 31.8182H40.5455V34H38.3636V31.8182Z" fill="white" style="fill:white;fill-opacity:1"></path><path d="M40.5455 31.8182H42.7273V34H40.5455V31.8182Z" fill="white" style="fill:white;fill-opacity:1"></path><path d="M42.7273 31.8182H44.9091V34H42.7273V31.8182Z" fill="white" style="fill:white;fill-opacity:1"></path><path d="M47.0909 31.8182H49.2727V34H47.0909V31.8182Z" fill="white" style="fill:white;fill-opacity:1"></path><path d="M49.2727 31.8182H51.4545V34H49.2727V31.8182Z" fill="white" style="fill:white;fill-opacity:1"></path><path d="M53.6364 31.8182H55.8182V34H53.6364V31.8182Z" fill="white" style="fill:white;fill-opacity:1"></path><path d="M55.8182 31.8182H58V34H55.8182V31.8182Z" fill="white" style="fill:white;fill-opacity:1"></path><path d="M68.9091 31.8182H71.0909V34H68.9091V31.8182Z" fill="white" style="fill:white;fill-opacity:1"></path><path d="M75.4545 31.8182H77.6364V34H75.4545V31.8182Z" fill="white" style="fill:white;fill-opacity:1"></path><path d="M77.6364 31.8182H79.8182V34H77.6364V31.8182Z" fill="white" style="fill:white;fill-opacity:1"></path><path d="M12.1818 34H14.3636V36.1818H12.1818V34Z" fill="white" style="fill:white;fill-opacity:1"></path><path d="M14.3636 34H16.5455V36.1818H14.3636V34Z" fill="white" style="fill:white;fill-opacity:1"></path><path d="M18.7273 34H20.9091V36.1818H18.7273V34Z" fill="white" style="fill:white;fill-opacity:1"></path><path d="M20.9091 34H23.0909V36.1818H20.9091V34Z" fill="white" style="fill:white;fill-opacity:1"></path><path d="M25.2727 34H27.4545V36.1818H25.2727V34Z" fill="white" style="fill:white;fill-opacity:1"></path><path d="M27.4545 34H29.6364V36.1818H27.4545V34Z" fill="white" style="fill:white;fill-opacity:1"></path><path d="M29.6364 34H31.8182V36.1818H29.6364V34Z" fill="white" style="fill:white;fill-opacity:1"></path><path d="M44.9091 34H47.0909V36.1818H44.9091V34Z" fill="white" style="fill:white;fill-opacity:1"></path><path d="M49.2727 34H51.4545V36.1818H49.2727V34Z" fill="white" style="fill:white;fill-opacity:1"></path><path d="M51.4545 34H53.6364V36.1818H51.4545V34Z" fill="white" style="fill:white;fill-opacity:1"></path><path d="M55.8182 34H58V36.1818H55.8182V34Z" fill="white" style="fill:white;fill-opacity:1"></path><path d="M58 34H60.1818V36.1818H58V34Z" fill="white" style="fill:white;fill-opacity:1"></path><path d="M64.5455 34H66.7273V36.1818H64.5455V34Z" fill="white" style="fill:white;fill-opacity:1"></path><path d="M66.7273 34H68.9091V36.1818H66.7273V34Z" fill="white" style="fill:white;fill-opacity:1"></path><path d="M73.2727 34H75.4545V36.1818H73.2727V34Z" fill="white" style="fill:white;fill-opacity:1"></path><path d="M75.4545 34H77.6364V36.1818H75.4545V34Z" fill="white" style="fill:white;fill-opacity:1"></path><path d="M77.6364 34H79.8182V36.1818H77.6364V34Z" fill="white" style="fill:white;fill-opacity:1"></path><path d="M79.8182 34H82V36.1818H79.8182V34Z" fill="white" style="fill:white;fill-opacity:1"></path><path d="M10 36.1818H12.1818V38.3636H10V36.1818Z" fill="white" style="fill:white;fill-opacity:1"></path><path d="M16.5455 36.1818H18.7273V38.3636H16.5455V36.1818Z" fill="white" style="fill:white;fill-opacity:1"></path><path d="M18.7273 36.1818H20.9091V38.3636H18.7273V36.1818Z" fill="white" style="fill:white;fill-opacity:1"></path><path d="M20.9091 36.1818H23.0909V38.3636H20.9091V36.1818Z" fill="white" style="fill:white;fill-opacity:1"></path><path d="M23.0909 36.1818H25.2727V38.3636H23.0909V36.1818Z" fill="white" style="fill:white;fill-opacity:1"></path><path d="M31.8182 36.1818H34V38.3636H31.8182V36.1818Z" fill="white" style="fill:white;fill-opacity:1"></path><path d="M55.8182 36.1818H58V38.3636H55.8182V36.1818Z" fill="white" style="fill:white;fill-opacity:1"></path><path d="M60.1818 36.1818H62.3636V38.3636H60.1818V36.1818Z" fill="white" style="fill:white;fill-opacity:1"></path><path d="M64.5455 36.1818H66.7273V38.3636H64.5455V36.1818Z" fill="white" style="fill:white;fill-opacity:1"></path><path d="M71.0909 36.1818H73.2727V38.3636H71.0909V36.1818Z" fill="white" style="fill:white;fill-opacity:1"></path><path d="M73.2727 36.1818H75.4545V38.3636H73.2727V36.1818Z" fill="white" style="fill:white;fill-opacity:1"></path><path d="M77.6364 36.1818H79.8182V38.3636H77.6364V36.1818Z" fill="white" style="fill:white;fill-opacity:1"></path><path d="M12.1818 38.3636H14.3636V40.5455H12.1818V38.3636Z" fill="white" style="fill:white;fill-opacity:1"></path><path d="M14.3636 38.3636H16.5455V40.5455H14.3636V38.3636Z" fill="white" style="fill:white;fill-opacity:1"></path><path d="M18.7273 38.3636H20.9091V40.5455H18.7273V38.3636Z" fill="white" style="fill:white;fill-opacity:1"></path><path d="M25.2727 38.3636H27.4545V40.5455H25.2727V38.3636Z" fill="white" style="fill:white;fill-opacity:1"></path><path d="M27.4545 38.3636H29.6364V40.5455H27.4545V38.3636Z" fill="white" style="fill:white;fill-opacity:1"></path><path d="M29.6364 38.3636H31.8182V40.5455H29.6364V38.3636Z" fill="white" style="fill:white;fill-opacity:1"></path><path d="M31.8182 38.3636H34V40.5455H31.8182V38.3636Z" fill="white" style="fill:white;fill-opacity:1"></path><path d="M58 38.3636H60.1818V40.5455H58V38.3636Z" fill="white" style="fill:white;fill-opacity:1"></path><path d="M60.1818 38.3636H62.3636V40.5455H60.1818V38.3636Z" fill="white" style="fill:white;fill-opacity:1"></path><path d="M66.7273 38.3636H68.9091V40.5455H66.7273V38.3636Z" fill="white" style="fill:white;fill-opacity:1"></path><path d="M73.2727 38.3636H75.4545V40.5455H73.2727V38.3636Z" fill="white" style="fill:white;fill-opacity:1"></path><path d="M75.4545 38.3636H77.6364V40.5455H75.4545V38.3636Z" fill="white" style="fill:white;fill-opacity:1"></path><path d="M79.8182 38.3636H82V40.5455H79.8182V38.3636Z" fill="white" style="fill:white;fill-opacity:1"></path><path d="M10 40.5455H12.1818V42.7273H10V40.5455Z" fill="white" style="fill:white;fill-opacity:1"></path><path d="M12.1818 40.5455H14.3636V42.7273H12.1818V40.5455Z" fill="white" style="fill:white;fill-opacity:1"></path><path d="M16.5455 40.5455H18.7273V42.7273H16.5455V40.5455Z" fill="white" style="fill:white;fill-opacity:1"></path><path d="M20.9091 40.5455H23.0909V42.7273H20.9091V40.5455Z" fill="white" style="fill:white;fill-opacity:1"></path><path d="M23.0909 40.5455H25.2727V42.7273H23.0909V40.5455Z" fill="white" style="fill:white;fill-opacity:1"></path><path d="M27.4545 40.5455H29.6364V42.7273H27.4545V40.5455Z" fill="white" style="fill:white;fill-opacity:1"></path><path d="M34 40.5455H36.1818V42.7273H34V40.5455Z" fill="white" style="fill:white;fill-opacity:1"></path><path d="M58 40.5455H60.1818V42.7273H58V40.5455Z" fill="white" style="fill:white;fill-opacity:1"></path><path d="M66.7273 40.5455H68.9091V42.7273H66.7273V40.5455Z" fill="white" style="fill:white;fill-opacity:1"></path><path d="M71.0909 40.5455H73.2727V42.7273H71.0909V40.5455Z" fill="white" style="fill:white;fill-opacity:1"></path><path d="M73.2727 40.5455H75.4545V42.7273H73.2727V40.5455Z" fill="white" style="fill:white;fill-opacity:1"></path><path d="M77.6364 40.5455H79.8182V42.7273H77.6364V40.5455Z" fill="white" style="fill:white;fill-opacity:1"></path><path d="M14.3636 42.7273H16.5455V44.9091H14.3636V42.7273Z" fill="white" style="fill:white;fill-opacity:1"></path><path d="M20.9091 42.7273H23.0909V44.9091H20.9091V42.7273Z" fill="white" style="fill:white;fill-opacity:1"></path><path d="M29.6364 42.7273H31.8182V44.9091H29.6364V42.7273Z" fill="white" style="fill:white;fill-opacity:1"></path><path d="M31.8182 42.7273H34V44.9091H31.8182V42.7273Z" fill="white" style="fill:white;fill-opacity:1"></path><path d="M34 42.7273H36.1818V44.9091H34V42.7273Z" fill="white" style="fill:white;fill-opacity:1"></path><path d="M55.8182 42.7273H58V44.9091H55.8182V42.7273Z" fill="white" style="fill:white;fill-opacity:1"></path><path d="M58 42.7273H60.1818V44.9091H58V42.7273Z" fill="white" style="fill:white;fill-opacity:1"></path><path d="M60.1818 42.7273H62.3636V44.9091H60.1818V42.7273Z" fill="white" style="fill:white;fill-opacity:1"></path><path d="M64.5455 42.7273H66.7273V44.9091H64.5455V42.7273Z" fill="white" style="fill:white;fill-opacity:1"></path><path d="M68.9091 42.7273H71.0909V44.9091H68.9091V42.7273Z" fill="white" style="fill:white;fill-opacity:1"></path><path d="M73.2727 42.7273H75.4545V44.9091H73.2727V42.7273Z" fill="white" style="fill:white;fill-opacity:1"></path><path d="M75.4545 42.7273H77.6364V44.9091H75.4545V42.7273Z" fill="white" style="fill:white;fill-opacity:1"></path><path d="M77.6364 42.7273H79.8182V44.9091H77.6364V42.7273Z" fill="white" style="fill:white;fill-opacity:1"></path><path d="M79.8182 42.7273H82V44.9091H79.8182V42.7273Z" fill="white" style="fill:white;fill-opacity:1"></path><path d="M14.3636 44.9091H16.5455V47.0909H14.3636V44.9091Z" fill="white" style="fill:white;fill-opacity:1"></path><path d="M20.9091 44.9091H23.0909V47.0909H20.9091V44.9091Z" fill="white" style="fill:white;fill-opacity:1"></path><path d="M23.0909 44.9091H25.2727V47.0909H23.0909V44.9091Z" fill="white" style="fill:white;fill-opacity:1"></path><path d="M60.1818 44.9091H62.3636V47.0909H60.1818V44.9091Z" fill="white" style="fill:white;fill-opacity:1"></path><path d="M64.5455 44.9091H66.7273V47.0909H64.5455V44.9091Z" fill="white" style="fill:white;fill-opacity:1"></path><path d="M75.4545 44.9091H77.6364V47.0909H75.4545V44.9091Z" fill="white" style="fill:white;fill-opacity:1"></path><path d="M77.6364 44.9091H79.8182V47.0909H77.6364V44.9091Z" fill="white" style="fill:white;fill-opacity:1"></path><path d="M79.8182 44.9091H82V47.0909H79.8182V44.9091Z" fill="white" style="fill:white;fill-opacity:1"></path><path d="M14.3636 47.0909H16.5455V49.2727H14.3636V47.0909Z" fill="white" style="fill:white;fill-opacity:1"></path><path d="M16.5455 47.0909H18.7273V49.2727H16.5455V47.0909Z" fill="white" style="fill:white;fill-opacity:1"></path><path d="M29.6364 47.0909H31.8182V49.2727H29.6364V47.0909Z" fill="white" style="fill:white;fill-opacity:1"></path><path d="M60.1818 47.0909H62.3636V49.2727H60.1818V47.0909Z" fill="white" style="fill:white;fill-opacity:1"></path><path d="M62.3636 47.0909H64.5455V49.2727H62.3636V47.0909Z" fill="white" style="fill:white;fill-opacity:1"></path><path d="M64.5455 47.0909H66.7273V49.2727H64.5455V47.0909Z" fill="white" style="fill:white;fill-opacity:1"></path><path d="M66.7273 47.0909H68.9091V49.2727H66.7273V47.0909Z" fill="white" style="fill:white;fill-opacity:1"></path><path d="M77.6364 47.0909H79.8182V49.2727H77.6364V47.0909Z" fill="white" style="fill:white;fill-opacity:1"></path><path d="M79.8182 47.0909H82V49.2727H79.8182V47.0909Z" fill="white" style="fill:white;fill-opacity:1"></path><path d="M10 49.2727H12.1818V51.4545H10V49.2727Z" fill="white" style="fill:white;fill-opacity:1"></path><path d="M14.3636 49.2727H16.5455V51.4545H14.3636V49.2727Z" fill="white" style="fill:white;fill-opacity:1"></path><path d="M16.5455 49.2727H18.7273V51.4545H16.5455V49.2727Z" fill="white" style="fill:white;fill-opacity:1"></path><path d="M18.7273 49.2727H20.9091V51.4545H18.7273V49.2727Z" fill="white" style="fill:white;fill-opacity:1"></path><path d="M20.9091 49.2727H23.0909V51.4545H20.9091V49.2727Z" fill="white" style="fill:white;fill-opacity:1"></path><path d="M23.0909 49.2727H25.2727V51.4545H23.0909V49.2727Z" fill="white" style="fill:white;fill-opacity:1"></path><path d="M25.2727 49.2727H27.4545V51.4545H25.2727V49.2727Z" fill="white" style="fill:white;fill-opacity:1"></path><path d="M27.4545 49.2727H29.6364V51.4545H27.4545V49.2727Z" fill="white" style="fill:white;fill-opacity:1"></path><path d="M31.8182 49.2727H34V51.4545H31.8182V49.2727Z" fill="white" style="fill:white;fill-opacity:1"></path><path d="M34 49.2727H36.1818V51.4545H34V49.2727Z" fill="white" style="fill:white;fill-opacity:1"></path><path d="M58 49.2727H60.1818V51.4545H58V49.2727Z" fill="white" style="fill:white;fill-opacity:1"></path><path d="M71.0909 49.2727H73.2727V51.4545H71.0909V49.2727Z" fill="white" style="fill:white;fill-opacity:1"></path><path d="M75.4545 49.2727H77.6364V51.4545H75.4545V49.2727Z" fill="white" style="fill:white;fill-opacity:1"></path><path d="M10 51.4545H12.1818V53.6364H10V51.4545Z" fill="white" style="fill:white;fill-opacity:1"></path><path d="M12.1818 51.4545H14.3636V53.6364H12.1818V51.4545Z" fill="white" style="fill:white;fill-opacity:1"></path><path d="M14.3636 51.4545H16.5455V53.6364H14.3636V51.4545Z" fill="white" style="fill:white;fill-opacity:1"></path><path d="M16.5455 51.4545H18.7273V53.6364H16.5455V51.4545Z" fill="white" style="fill:white;fill-opacity:1"></path><path d="M25.2727 51.4545H27.4545V53.6364H25.2727V51.4545Z" fill="white" style="fill:white;fill-opacity:1"></path><path d="M34 51.4545H36.1818V53.6364H34V51.4545Z" fill="white" style="fill:white;fill-opacity:1"></path><path d="M55.8182 51.4545H58V53.6364H55.8182V51.4545Z" fill="white" style="fill:white;fill-opacity:1"></path><path d="M60.1818 51.4545H62.3636V53.6364H60.1818V51.4545Z" fill="white" style="fill:white;fill-opacity:1"></path><path d="M62.3636 51.4545H64.5455V53.6364H62.3636V51.4545Z" fill="white" style="fill:white;fill-opacity:1"></path><path d="M64.5455 51.4545H66.7273V53.6364H64.5455V51.4545Z" fill="white" style="fill:white;fill-opacity:1"></path><path d="M66.7273 51.4545H68.9091V53.6364H66.7273V51.4545Z" fill="white" style="fill:white;fill-opacity:1"></path><path d="M71.0909 51.4545H73.2727V53.6364H71.0909V51.4545Z" fill="white" style="fill:white;fill-opacity:1"></path><path d="M73.2727 51.4545H75.4545V53.6364H73.2727V51.4545Z" fill="white" style="fill:white;fill-opacity:1"></path><path d="M75.4545 51.4545H77.6364V53.6364H75.4545V51.4545Z" fill="white" style="fill:white;fill-opacity:1"></path><path d="M77.6364 51.4545H79.8182V53.6364H77.6364V51.4545Z" fill="white" style="fill:white;fill-opacity:1"></path><path d="M12.1818 53.6364H14.3636V55.8182H12.1818V53.6364Z" fill="white" style="fill:white;fill-opacity:1"></path><path d="M14.3636 53.6364H16.5455V55.8182H14.3636V53.6364Z" fill="white" style="fill:white;fill-opacity:1"></path><path d="M18.7273 53.6364H20.9091V55.8182H18.7273V53.6364Z" fill="white" style="fill:white;fill-opacity:1"></path><path d="M23.0909 53.6364H25.2727V55.8182H23.0909V53.6364Z" fill="white" style="fill:white;fill-opacity:1"></path><path d="M27.4545 53.6364H29.6364V55.8182H27.4545V53.6364Z" fill="white" style="fill:white;fill-opacity:1"></path><path d="M31.8182 53.6364H34V55.8182H31.8182V53.6364Z" fill="white" style="fill:white;fill-opacity:1"></path><path d="M58 53.6364H60.1818V55.8182H58V53.6364Z" fill="white" style="fill:white;fill-opacity:1"></path><path d="M62.3636 53.6364H64.5455V55.8182H62.3636V53.6364Z" fill="white" style="fill:white;fill-opacity:1"></path><path d="M64.5455 53.6364H66.7273V55.8182H64.5455V53.6364Z" fill="white" style="fill:white;fill-opacity:1"></path><path d="M71.0909 53.6364H73.2727V55.8182H71.0909V53.6364Z" fill="white" style="fill:white;fill-opacity:1"></path><path d="M73.2727 53.6364H75.4545V55.8182H73.2727V53.6364Z" fill="white" style="fill:white;fill-opacity:1"></path><path d="M79.8182 53.6364H82V55.8182H79.8182V53.6364Z" fill="white" style="fill:white;fill-opacity:1"></path><path d="M10 55.8182H12.1818V58H10V55.8182Z" fill="white" style="fill:white;fill-opacity:1"></path><path d="M12.1818 55.8182H14.3636V58H12.1818V55.8182Z" fill="white" style="fill:white;fill-opacity:1"></path><path d="M25.2727 55.8182H27.4545V58H25.2727V55.8182Z" fill="white" style="fill:white;fill-opacity:1"></path><path d="M29.6364 55.8182H31.8182V58H29.6364V55.8182Z" fill="white" style="fill:white;fill-opacity:1"></path><path d="M38.3636 55.8182H40.5455V58H38.3636V55.8182Z" fill="white" style="fill:white;fill-opacity:1"></path><path d="M40.5455 55.8182H42.7273V58H40.5455V55.8182Z" fill="white" style="fill:white;fill-opacity:1"></path><path d="M42.7273 55.8182H44.9091V58H42.7273V55.8182Z" fill="white" style="fill:white;fill-opacity:1"></path><path d="M47.0909 55.8182H49.2727V58H47.0909V55.8182Z" fill="white" style="fill:white;fill-opacity:1"></path><path d="M53.6364 55.8182H55.8182V58H53.6364V55.8182Z" fill="white" style="fill:white;fill-opacity:1"></path><path d="M62.3636 55.8182H64.5455V58H62.3636V55.8182Z" fill="white" style="fill:white;fill-opacity:1"></path><path d="M66.7273 55.8182H68.9091V58H66.7273V55.8182Z" fill="white" style="fill:white;fill-opacity:1"></path><path d="M73.2727 55.8182H75.4545V58H73.2727V55.8182Z" fill="white" style="fill:white;fill-opacity:1"></path><path d="M77.6364 55.8182H79.8182V58H77.6364V55.8182Z" fill="white" style="fill:white;fill-opacity:1"></path><path d="M79.8182 55.8182H82V58H79.8182V55.8182Z" fill="white" style="fill:white;fill-opacity:1"></path><path d="M10 58H12.1818V60.1818H10V58Z" fill="white" style="fill:white;fill-opacity:1"></path><path d="M14.3636 58H16.5455V60.1818H14.3636V58Z" fill="white" style="fill:white;fill-opacity:1"></path><path d="M16.5455 58H18.7273V60.1818H16.5455V58Z" fill="white" style="fill:white;fill-opacity:1"></path><path d="M20.9091 58H23.0909V60.1818H20.9091V58Z" fill="white" style="fill:white;fill-opacity:1"></path><path d="M23.0909 58H25.2727V60.1818H23.0909V58Z" fill="white" style="fill:white;fill-opacity:1"></path><path d="M27.4545 58H29.6364V60.1818H27.4545V58Z" fill="white" style="fill:white;fill-opacity:1"></path><path d="M31.8182 58H34V60.1818H31.8182V58Z" fill="white" style="fill:white;fill-opacity:1"></path><path d="M34 58H36.1818V60.1818H34V58Z" fill="white" style="fill:white;fill-opacity:1"></path><path d="M36.1818 58H38.3636V60.1818H36.1818V58Z" fill="white" style="fill:white;fill-opacity:1"></path><path d="M38.3636 58H40.5455V60.1818H38.3636V58Z" fill="white" style="fill:white;fill-opacity:1"></path><path d="M42.7273 58H44.9091V60.1818H42.7273V58Z" fill="white" style="fill:white;fill-opacity:1"></path><path d="M47.0909 58H49.2727V60.1818H47.0909V58Z" fill="white" style="fill:white;fill-opacity:1"></path><path d="M49.2727 58H51.4545V60.1818H49.2727V58Z" fill="white" style="fill:white;fill-opacity:1"></path><path d="M58 58H60.1818V60.1818H58V58Z" fill="white" style="fill:white;fill-opacity:1"></path><path d="M62.3636 58H64.5455V60.1818H62.3636V58Z" fill="white" style="fill:white;fill-opacity:1"></path><path d="M68.9091 58H71.0909V60.1818H68.9091V58Z" fill="white" style="fill:white;fill-opacity:1"></path><path d="M71.0909 58H73.2727V60.1818H71.0909V58Z" fill="white" style="fill:white;fill-opacity:1"></path><path d="M73.2727 58H75.4545V60.1818H73.2727V58Z" fill="white" style="fill:white;fill-opacity:1"></path><path d="M77.6364 58H79.8182V60.1818H77.6364V58Z" fill="white" style="fill:white;fill-opacity:1"></path><path d="M10 60.1818H12.1818V62.3636H10V60.1818Z" fill="white" style="fill:white;fill-opacity:1"></path><path d="M14.3636 60.1818H16.5455V62.3636H14.3636V60.1818Z" fill="white" style="fill:white;fill-opacity:1"></path><path d="M16.5455 60.1818H18.7273V62.3636H16.5455V60.1818Z" fill="white" style="fill:white;fill-opacity:1"></path><path d="M18.7273 60.1818H20.9091V62.3636H18.7273V60.1818Z" fill="white" style="fill:white;fill-opacity:1"></path><path d="M20.9091 60.1818H23.0909V62.3636H20.9091V60.1818Z" fill="white" style="fill:white;fill-opacity:1"></path><path d="M25.2727 60.1818H27.4545V62.3636H25.2727V60.1818Z" fill="white" style="fill:white;fill-opacity:1"></path><path d="M27.4545 60.1818H29.6364V62.3636H27.4545V60.1818Z" fill="white" style="fill:white;fill-opacity:1"></path><path d="M31.8182 60.1818H34V62.3636H31.8182V60.1818Z" fill="white" style="fill:white;fill-opacity:1"></path><path d="M36.1818 60.1818H38.3636V62.3636H36.1818V60.1818Z" fill="white" style="fill:white;fill-opacity:1"></path><path d="M38.3636 60.1818H40.5455V62.3636H38.3636V60.1818Z" fill="white" style="fill:white;fill-opacity:1"></path><path d="M40.5455 60.1818H42.7273V62.3636H40.5455V60.1818Z" fill="white" style="fill:white;fill-opacity:1"></path><path d="M42.7273 60.1818H44.9091V62.3636H42.7273V60.1818Z" fill="white" style="fill:white;fill-opacity:1"></path><path d="M44.9091 60.1818H47.0909V62.3636H44.9091V60.1818Z" fill="white" style="fill:white;fill-opacity:1"></path><path d="M47.0909 60.1818H49.2727V62.3636H47.0909V60.1818Z" fill="white" style="fill:white;fill-opacity:1"></path><path d="M49.2727 60.1818H51.4545V62.3636H49.2727V60.1818Z" fill="white" style="fill:white;fill-opacity:1"></path><path d="M51.4545 60.1818H53.6364V62.3636H51.4545V60.1818Z" fill="white" style="fill:white;fill-opacity:1"></path><path d="M55.8182 60.1818H58V62.3636H55.8182V60.1818Z" fill="white" style="fill:white;fill-opacity:1"></path><path d="M58 60.1818H60.1818V62.3636H58V60.1818Z" fill="white" style="fill:white;fill-opacity:1"></path><path d="M60.1818 60.1818H62.3636V62.3636H60.1818V60.1818Z" fill="white" style="fill:white;fill-opacity:1"></path><path d="M62.3636 60.1818H64.5455V62.3636H62.3636V60.1818Z" fill="white" style="fill:white;fill-opacity:1"></path><path d="M71.0909 60.1818H73.2727V62.3636H71.0909V60.1818Z" fill="white" style="fill:white;fill-opacity:1"></path><path d="M75.4545 60.1818H77.6364V62.3636H75.4545V60.1818Z" fill="white" style="fill:white;fill-opacity:1"></path><path d="M77.6364 60.1818H79.8182V62.3636H77.6364V60.1818Z" fill="white" style="fill:white;fill-opacity:1"></path><path d="M10 62.3636H12.1818V64.5455H10V62.3636Z" fill="white" style="fill:white;fill-opacity:1"></path><path d="M23.0909 62.3636H25.2727V64.5455H23.0909V62.3636Z" fill="white" style="fill:white;fill-opacity:1"></path><path d="M29.6364 62.3636H31.8182V64.5455H29.6364V62.3636Z" fill="white" style="fill:white;fill-opacity:1"></path><path d="M51.4545 62.3636H53.6364V64.5455H51.4545V62.3636Z" fill="white" style="fill:white;fill-opacity:1"></path><path d="M53.6364 62.3636H55.8182V64.5455H53.6364V62.3636Z" fill="white" style="fill:white;fill-opacity:1"></path><path d="M55.8182 62.3636H58V64.5455H55.8182V62.3636Z" fill="white" style="fill:white;fill-opacity:1"></path><path d="M58 62.3636H60.1818V64.5455H58V62.3636Z" fill="white" style="fill:white;fill-opacity:1"></path><path d="M62.3636 62.3636H64.5455V64.5455H62.3636V62.3636Z" fill="white" style="fill:white;fill-opacity:1"></path><path d="M64.5455 62.3636H66.7273V64.5455H64.5455V62.3636Z" fill="white" style="fill:white;fill-opacity:1"></path><path d="M66.7273 62.3636H68.9091V64.5455H66.7273V62.3636Z" fill="white" style="fill:white;fill-opacity:1"></path><path d="M68.9091 62.3636H71.0909V64.5455H68.9091V62.3636Z" fill="white" style="fill:white;fill-opacity:1"></path><path d="M71.0909 62.3636H73.2727V64.5455H71.0909V62.3636Z" fill="white" style="fill:white;fill-opacity:1"></path><path d="M27.4545 64.5455H29.6364V66.7273H27.4545V64.5455Z" fill="white" style="fill:white;fill-opacity:1"></path><path d="M29.6364 64.5455H31.8182V66.7273H29.6364V64.5455Z" fill="white" style="fill:white;fill-opacity:1"></path><path d="M40.5455 64.5455H42.7273V66.7273H40.5455V64.5455Z" fill="white" style="fill:white;fill-opacity:1"></path><path d="M42.7273 64.5455H44.9091V66.7273H42.7273V64.5455Z" fill="white" style="fill:white;fill-opacity:1"></path><path d="M44.9091 64.5455H47.0909V66.7273H44.9091V64.5455Z" fill="white" style="fill:white;fill-opacity:1"></path><path d="M49.2727 64.5455H51.4545V66.7273H49.2727V64.5455Z" fill="white" style="fill:white;fill-opacity:1"></path><path d="M51.4545 64.5455H53.6364V66.7273H51.4545V64.5455Z" fill="white" style="fill:white;fill-opacity:1"></path><path d="M58 64.5455H60.1818V66.7273H58V64.5455Z" fill="white" style="fill:white;fill-opacity:1"></path><path d="M62.3636 64.5455H64.5455V66.7273H62.3636V64.5455Z" fill="white" style="fill:white;fill-opacity:1"></path><path d="M71.0909 64.5455H73.2727V66.7273H71.0909V64.5455Z" fill="white" style="fill:white;fill-opacity:1"></path><path d="M75.4545 64.5455H77.6364V66.7273H75.4545V64.5455Z" fill="white" style="fill:white;fill-opacity:1"></path><path d="M79.8182 64.5455H82V66.7273H79.8182V64.5455Z" fill="white" style="fill:white;fill-opacity:1"></path><path d="M34 66.7273H36.1818V68.9091H34V66.7273Z" fill="white" style="fill:white;fill-opacity:1"></path><path d="M36.1818 66.7273H38.3636V68.9091H36.1818V66.7273Z" fill="white" style="fill:white;fill-opacity:1"></path><path d="M38.3636 66.7273H40.5455V68.9091H38.3636V66.7273Z" fill="white" style="fill:white;fill-opacity:1"></path><path d="M44.9091 66.7273H47.0909V68.9091H44.9091V66.7273Z" fill="white" style="fill:white;fill-opacity:1"></path><path d="M47.0909 66.7273H49.2727V68.9091H47.0909V66.7273Z" fill="white" style="fill:white;fill-opacity:1"></path><path d="M49.2727 66.7273H51.4545V68.9091H49.2727V66.7273Z" fill="white" style="fill:white;fill-opacity:1"></path><path d="M51.4545 66.7273H53.6364V68.9091H51.4545V66.7273Z" fill="white" style="fill:white;fill-opacity:1"></path><path d="M53.6364 66.7273H55.8182V68.9091H53.6364V66.7273Z" fill="white" style="fill:white;fill-opacity:1"></path><path d="M58 66.7273H60.1818V68.9091H58V66.7273Z" fill="white" style="fill:white;fill-opacity:1"></path><path d="M60.1818 66.7273H62.3636V68.9091H60.1818V66.7273Z" fill="white" style="fill:white;fill-opacity:1"></path><path d="M62.3636 66.7273H64.5455V68.9091H62.3636V66.7273Z" fill="white" style="fill:white;fill-opacity:1"></path><path d="M66.7273 66.7273H68.9091V68.9091H66.7273V66.7273Z" fill="white" style="fill:white;fill-opacity:1"></path><path d="M71.0909 66.7273H73.2727V68.9091H71.0909V66.7273Z" fill="white" style="fill:white;fill-opacity:1"></path><path d="M75.4545 66.7273H77.6364V68.9091H75.4545V66.7273Z" fill="white" style="fill:white;fill-opacity:1"></path><path d="M77.6364 66.7273H79.8182V68.9091H77.6364V66.7273Z" fill="white" style="fill:white;fill-opacity:1"></path><path d="M29.6364 68.9091H31.8182V71.0909H29.6364V68.9091Z" fill="white" style="fill:white;fill-opacity:1"></path><path d="M34 68.9091H36.1818V71.0909H34V68.9091Z" fill="white" style="fill:white;fill-opacity:1"></path><path d="M44.9091 68.9091H47.0909V71.0909H44.9091V68.9091Z" fill="white" style="fill:white;fill-opacity:1"></path><path d="M51.4545 68.9091H53.6364V71.0909H51.4545V68.9091Z" fill="white" style="fill:white;fill-opacity:1"></path><path d="M60.1818 68.9091H62.3636V71.0909H60.1818V68.9091Z" fill="white" style="fill:white;fill-opacity:1"></path><path d="M62.3636 68.9091H64.5455V71.0909H62.3636V68.9091Z" fill="white" style="fill:white;fill-opacity:1"></path><path d="M71.0909 68.9091H73.2727V71.0909H71.0909V68.9091Z" fill="white" style="fill:white;fill-opacity:1"></path><path d="M75.4545 68.9091H77.6364V71.0909H75.4545V68.9091Z" fill="white" style="fill:white;fill-opacity:1"></path><path d="M77.6364 68.9091H79.8182V71.0909H77.6364V68.9091Z" fill="white" style="fill:white;fill-opacity:1"></path><path d="M79.8182 68.9091H82V71.0909H79.8182V68.9091Z" fill="white" style="fill:white;fill-opacity:1"></path><path d="M27.4545 71.0909H29.6364V73.2727H27.4545V71.0909Z" fill="white" style="fill:white;fill-opacity:1"></path><path d="M31.8182 71.0909H34V73.2727H31.8182V71.0909Z" fill="white" style="fill:white;fill-opacity:1"></path><path d="M36.1818 71.0909H38.3636V73.2727H36.1818V71.0909Z" fill="white" style="fill:white;fill-opacity:1"></path><path d="M38.3636 71.0909H40.5455V73.2727H38.3636V71.0909Z" fill="white" style="fill:white;fill-opacity:1"></path><path d="M42.7273 71.0909H44.9091V73.2727H42.7273V71.0909Z" fill="white" style="fill:white;fill-opacity:1"></path><path d="M44.9091 71.0909H47.0909V73.2727H44.9091V71.0909Z" fill="white" style="fill:white;fill-opacity:1"></path><path d="M55.8182 71.0909H58V73.2727H55.8182V71.0909Z" fill="white" style="fill:white;fill-opacity:1"></path><path d="M58 71.0909H60.1818V73.2727H58V71.0909Z" fill="white" style="fill:white;fill-opacity:1"></path><path d="M62.3636 71.0909H64.5455V73.2727H62.3636V71.0909Z" fill="white" style="fill:white;fill-opacity:1"></path><path d="M64.5455 71.0909H66.7273V73.2727H64.5455V71.0909Z" fill="white" style="fill:white;fill-opacity:1"></path><path d="M66.7273 71.0909H68.9091V73.2727H66.7273V71.0909Z" fill="white" style="fill:white;fill-opacity:1"></path><path d="M68.9091 71.0909H71.0909V73.2727H68.9091V71.0909Z" fill="white" style="fill:white;fill-opacity:1"></path><path d="M71.0909 71.0909H73.2727V73.2727H71.0909V71.0909Z" fill="white" style="fill:white;fill-opacity:1"></path><path d="M77.6364 71.0909H79.8182V73.2727H77.6364V71.0909Z" fill="white" style="fill:white;fill-opacity:1"></path><path d="M79.8182 71.0909H82V73.2727H79.8182V71.0909Z" fill="white" style="fill:white;fill-opacity:1"></path><path d="M27.4545 73.2727H29.6364V75.4545H27.4545V73.2727Z" fill="white" style="fill:white;fill-opacity:1"></path><path d="M38.3636 73.2727H40.5455V75.4545H38.3636V73.2727Z" fill="white" style="fill:white;fill-opacity:1"></path><path d="M42.7273 73.2727H44.9091V75.4545H42.7273V73.2727Z" fill="white" style="fill:white;fill-opacity:1"></path><path d="M49.2727 73.2727H51.4545V75.4545H49.2727V73.2727Z" fill="white" style="fill:white;fill-opacity:1"></path><path d="M53.6364 73.2727H55.8182V75.4545H53.6364V73.2727Z" fill="white" style="fill:white;fill-opacity:1"></path><path d="M60.1818 73.2727H62.3636V75.4545H60.1818V73.2727Z" fill="white" style="fill:white;fill-opacity:1"></path><path d="M62.3636 73.2727H64.5455V75.4545H62.3636V73.2727Z" fill="white" style="fill:white;fill-opacity:1"></path><path d="M64.5455 73.2727H66.7273V75.4545H64.5455V73.2727Z" fill="white" style="fill:white;fill-opacity:1"></path><path d="M71.0909 73.2727H73.2727V75.4545H71.0909V73.2727Z" fill="white" style="fill:white;fill-opacity:1"></path><path d="M73.2727 73.2727H75.4545V75.4545H73.2727V73.2727Z" fill="white" style="fill:white;fill-opacity:1"></path><path d="M75.4545 73.2727H77.6364V75.4545H75.4545V73.2727Z" fill="white" style="fill:white;fill-opacity:1"></path><path d="M77.6364 73.2727H79.8182V75.4545H77.6364V73.2727Z" fill="white" style="fill:white;fill-opacity:1"></path><path d="M27.4545 75.4545H29.6364V77.6364H27.4545V75.4545Z" fill="white" style="fill:white;fill-opacity:1"></path><path d="M31.8182 75.4545H34V77.6364H31.8182V75.4545Z" fill="white" style="fill:white;fill-opacity:1"></path><path d="M34 75.4545H36.1818V77.6364H34V75.4545Z" fill="white" style="fill:white;fill-opacity:1"></path><path d="M40.5455 75.4545H42.7273V77.6364H40.5455V75.4545Z" fill="white" style="fill:white;fill-opacity:1"></path><path d="M42.7273 75.4545H44.9091V77.6364H42.7273V75.4545Z" fill="white" style="fill:white;fill-opacity:1"></path><path d="M47.0909 75.4545H49.2727V77.6364H47.0909V75.4545Z" fill="white" style="fill:white;fill-opacity:1"></path><path d="M49.2727 75.4545H51.4545V77.6364H49.2727V75.4545Z" fill="white" style="fill:white;fill-opacity:1"></path><path d="M55.8182 75.4545H58V77.6364H55.8182V75.4545Z" fill="white" style="fill:white;fill-opacity:1"></path><path d="M62.3636 75.4545H64.5455V77.6364H62.3636V75.4545Z" fill="white" style="fill:white;fill-opacity:1"></path><path d="M64.5455 75.4545H66.7273V77.6364H64.5455V75.4545Z" fill="white" style="fill:white;fill-opacity:1"></path><path d="M66.7273 75.4545H68.9091V77.6364H66.7273V75.4545Z" fill="white" style="fill:white;fill-opacity:1"></path><path d="M75.4545 75.4545H77.6364V77.6364H75.4545V75.4545Z" fill="white" style="fill:white;fill-opacity:1"></path><path d="M29.6364 77.6364H31.8182V79.8182H29.6364V77.6364Z" fill="white" style="fill:white;fill-opacity:1"></path><path d="M34 77.6364H36.1818V79.8182H34V77.6364Z" fill="white" style="fill:white;fill-opacity:1"></path><path d="M36.1818 77.6364H38.3636V79.8182H36.1818V77.6364Z" fill="white" style="fill:white;fill-opacity:1"></path><path d="M38.3636 77.6364H40.5455V79.8182H38.3636V77.6364Z" fill="white" style="fill:white;fill-opacity:1"></path><path d="M40.5455 77.6364H42.7273V79.8182H40.5455V77.6364Z" fill="white" style="fill:white;fill-opacity:1"></path><path d="M42.7273 77.6364H44.9091V79.8182H42.7273V77.6364Z" fill="white" style="fill:white;fill-opacity:1"></path><path d="M44.9091 77.6364H47.0909V79.8182H44.9091V77.6364Z" fill="white" style="fill:white;fill-opacity:1"></path><path d="M47.0909 77.6364H49.2727V79.8182H47.0909V77.6364Z" fill="white" style="fill:white;fill-opacity:1"></path><path d="M49.2727 77.6364H51.4545V79.8182H49.2727V77.6364Z" fill="white" style="fill:white;fill-opacity:1"></path><path d="M53.6364 77.6364H55.8182V79.8182H53.6364V77.6364Z" fill="white" style="fill:white;fill-opacity:1"></path><path d="M58 77.6364H60.1818V79.8182H58V77.6364Z" fill="white" style="fill:white;fill-opacity:1"></path><path d="M66.7273 77.6364H68.9091V79.8182H66.7273V77.6364Z" fill="white" style="fill:white;fill-opacity:1"></path><path d="M68.9091 77.6364H71.0909V79.8182H68.9091V77.6364Z" fill="white" style="fill:white;fill-opacity:1"></path><path d="M73.2727 77.6364H75.4545V79.8182H73.2727V77.6364Z" fill="white" style="fill:white;fill-opacity:1"></path><path d="M75.4545 77.6364H77.6364V79.8182H75.4545V77.6364Z" fill="white" style="fill:white;fill-opacity:1"></path><path d="M31.8182 79.8182H34V82H31.8182V79.8182Z" fill="white" style="fill:white;fill-opacity:1"></path><path d="M34 79.8182H36.1818V82H34V79.8182Z" fill="white" style="fill:white;fill-opacity:1"></path><path d="M36.1818 79.8182H38.3636V82H36.1818V79.8182Z" fill="white" style="fill:white;fill-opacity:1"></path><path d="M40.5455 79.8182H42.7273V82H40.5455V79.8182Z" fill="white" style="fill:white;fill-opacity:1"></path><path d="M42.7273 79.8182H44.9091V82H42.7273V79.8182Z" fill="white" style="fill:white;fill-opacity:1"></path><path d="M47.0909 79.8182H49.2727V82H47.0909V79.8182Z" fill="white" style="fill:white;fill-opacity:1"></path><path d="M53.6364 79.8182H55.8182V82H53.6364V79.8182Z" fill="white" style="fill:white;fill-opacity:1"></path><path d="M60.1818 79.8182H62.3636V82H60.1818V79.8182Z" fill="white" style="fill:white;fill-opacity:1"></path><path d="M62.3636 79.8182H64.5455V82H62.3636V79.8182Z" fill="white" style="fill:white;fill-opacity:1"></path><path d="M75.4545 79.8182H77.6364V82H75.4545V79.8182Z" fill="white" style="fill:white;fill-opacity:1"></path><path d="M77.6364 79.8182H79.8182V82H77.6364V79.8182Z" fill="white" style="fill:white;fill-opacity:1"></path><path d="M29.6364 12.1818V10H27.4545V12.1818M29.6364 12.1818H27.4545M29.6364 12.1818V14.3636M27.4545 12.1818V14.3636M34 12.1818V10H31.8182V12.1818H34ZM34 12.1818H36.1818M34 12.1818V14.3636M55.8182 10H53.6364V12.1818H55.8182M55.8182 10V12.1818M55.8182 10H58V12.1818M55.8182 12.1818H58M55.8182 12.1818V14.3636M58 12.1818V14.3636M62.3636 10H60.1818V12.1818H62.3636M62.3636 10V12.1818M62.3636 10H64.5455V12.1818M62.3636 12.1818H64.5455M62.3636 12.1818V14.3636M64.5455 12.1818V14.3636M29.6364 14.3636H27.4545M29.6364 14.3636V16.5455M29.6364 14.3636H31.8182M27.4545 14.3636V16.5455H29.6364M36.1818 12.1818V14.3636M36.1818 12.1818H38.3636V14.3636H36.1818M36.1818 14.3636H34M34 14.3636H31.8182M34 14.3636V16.5455H31.8182M58 14.3636H55.8182M58 14.3636V16.5455H55.8182M55.8182 14.3636V16.5455M64.5455 14.3636H62.3636M64.5455 14.3636V16.5455M62.3636 14.3636H60.1818V16.5455M62.3636 14.3636V16.5455M29.6364 16.5455H31.8182M29.6364 16.5455V18.7273H31.8182V16.5455M31.8182 14.3636V16.5455M44.9091 14.3636H42.7273V16.5455M44.9091 14.3636V16.5455M44.9091 14.3636H47.0909V16.5455M44.9091 16.5455H42.7273M44.9091 16.5455H47.0909M42.7273 16.5455H40.5455M42.7273 16.5455V18.7273H40.5455M47.0909 16.5455H49.2727V18.7273H47.0909V16.5455ZM55.8182 16.5455H53.6364V18.7273M55.8182 16.5455V18.7273M62.3636 16.5455H60.1818M62.3636 16.5455H64.5455M62.3636 16.5455V18.7273M60.1818 16.5455V18.7273H62.3636M64.5455 16.5455V18.7273H62.3636M40.5455 16.5455H38.3636V18.7273H40.5455M40.5455 16.5455V18.7273M55.8182 18.7273H53.6364M55.8182 18.7273H58V20.9091M55.8182 18.7273V20.9091M53.6364 18.7273H51.4545V20.9091M53.6364 18.7273V20.9091M34 20.9091H36.1818V18.7273H34V20.9091ZM34 20.9091H31.8182M34 20.9091V23.0909M53.6364 20.9091H51.4545M53.6364 20.9091V23.0909M53.6364 20.9091H55.8182M51.4545 20.9091V23.0909M58 20.9091H55.8182M58 20.9091V23.0909M55.8182 20.9091V23.0909M29.6364 20.9091H27.4545V23.0909M29.6364 20.9091V23.0909M29.6364 20.9091H31.8182M29.6364 23.0909H27.4545M29.6364 23.0909H31.8182M29.6364 23.0909V25.2727M27.4545 23.0909V25.2727M31.8182 20.9091V23.0909M31.8182 23.0909H34M31.8182 23.0909V25.2727M34 23.0909V25.2727M44.9091 23.0909V20.9091H42.7273V23.0909M44.9091 23.0909H42.7273M44.9091 23.0909H47.0909V25.2727M44.9091 23.0909V25.2727M42.7273 23.0909H40.5455V25.2727M42.7273 23.0909V25.2727H40.5455M53.6364 23.0909H51.4545M53.6364 23.0909H55.8182M53.6364 23.0909V25.2727M51.4545 23.0909H49.2727V25.2727M51.4545 23.0909V25.2727M55.8182 23.0909H58M55.8182 23.0909V25.2727M58 23.0909H60.1818M58 23.0909V25.2727M62.3636 20.9091H60.1818V23.0909M62.3636 20.9091V23.0909M62.3636 20.9091H64.5455V23.0909M62.3636 23.0909H60.1818M62.3636 23.0909H64.5455M62.3636 23.0909V25.2727M60.1818 23.0909V25.2727M64.5455 23.0909V25.2727H62.3636M29.6364 25.2727H27.4545M29.6364 25.2727V27.4545M27.4545 25.2727V27.4545M34 25.2727H31.8182M34 25.2727V27.4545M31.8182 25.2727V27.4545H34M38.3636 25.2727V23.0909H36.1818V25.2727H38.3636ZM38.3636 25.2727H40.5455M38.3636 25.2727V27.4545M40.5455 25.2727V27.4545M47.0909 25.2727H44.9091M47.0909 25.2727V27.4545M44.9091 25.2727V27.4545M51.4545 25.2727H49.2727M51.4545 25.2727V27.4545M51.4545 25.2727H53.6364M49.2727 25.2727V27.4545M55.8182 25.2727H53.6364M55.8182 25.2727H58M55.8182 25.2727V27.4545H58M53.6364 25.2727V27.4545H51.4545M60.1818 25.2727H58M60.1818 25.2727V27.4545M60.1818 25.2727H62.3636M58 25.2727V27.4545M62.3636 25.2727V27.4545M29.6364 27.4545H27.4545M29.6364 27.4545V29.6364M27.4545 27.4545V29.6364H29.6364M34 27.4545H36.1818V29.6364M34 27.4545V29.6364M40.5455 27.4545H38.3636M40.5455 27.4545V29.6364M40.5455 27.4545H42.7273M38.3636 27.4545V29.6364M47.0909 27.4545H44.9091M47.0909 27.4545H49.2727M47.0909 27.4545V29.6364M44.9091 27.4545H42.7273M44.9091 27.4545V29.6364M51.4545 27.4545H49.2727M51.4545 27.4545V29.6364M49.2727 27.4545V29.6364M58 27.4545H60.1818M58 27.4545V29.6364M60.1818 27.4545H62.3636M60.1818 27.4545V29.6364M62.3636 27.4545V29.6364M62.3636 27.4545H64.5455M16.5455 27.4545H14.3636V29.6364H16.5455M16.5455 27.4545V29.6364M16.5455 27.4545H18.7273M16.5455 29.6364H18.7273M18.7273 27.4545V29.6364M18.7273 27.4545H20.9091V29.6364M18.7273 29.6364H20.9091M20.9091 29.6364H23.0909M20.9091 29.6364V31.8182M23.0909 29.6364H25.2727V27.4545H23.0909V29.6364ZM23.0909 29.6364V31.8182M29.6364 29.6364H31.8182M29.6364 29.6364V31.8182M36.1818 29.6364H34M36.1818 29.6364H38.3636M36.1818 29.6364V31.8182M34 29.6364H31.8182M34 29.6364V31.8182M40.5455 29.6364H38.3636M40.5455 29.6364H42.7273M40.5455 29.6364V31.8182M38.3636 29.6364V31.8182M42.7273 27.4545V29.6364M42.7273 29.6364H44.9091M42.7273 29.6364V31.8182M44.9091 29.6364H47.0909M44.9091 29.6364V31.8182M49.2727 29.6364H47.0909M49.2727 29.6364H51.4545M49.2727 29.6364V31.8182M47.0909 29.6364V31.8182M51.4545 29.6364V31.8182M51.4545 29.6364H53.6364V31.8182M60.1818 29.6364H58M60.1818 29.6364H62.3636M58 29.6364H55.8182V31.8182M58 29.6364V31.8182M62.3636 29.6364H64.5455M64.5455 27.4545V29.6364M64.5455 27.4545H66.7273M64.5455 29.6364H66.7273M64.5455 29.6364V31.8182H66.7273M66.7273 27.4545V29.6364M66.7273 27.4545H68.9091M66.7273 29.6364H68.9091M66.7273 29.6364V31.8182M68.9091 27.4545V29.6364M68.9091 27.4545H71.0909V29.6364H68.9091M68.9091 29.6364V31.8182M77.6364 27.4545H75.4545V29.6364M77.6364 27.4545V29.6364M77.6364 27.4545H79.8182M77.6364 29.6364H75.4545M77.6364 29.6364H79.8182M77.6364 29.6364V31.8182M75.4545 29.6364V31.8182M79.8182 27.4545V29.6364M79.8182 27.4545H82V29.6364M79.8182 29.6364H82M79.8182 29.6364V31.8182M82 29.6364V31.8182H79.8182M23.0909 31.8182H20.9091M23.0909 31.8182V34M23.0909 31.8182H25.2727V34M20.9091 31.8182V34M31.8182 29.6364V31.8182M31.8182 31.8182H29.6364M31.8182 31.8182H34M31.8182 31.8182V34M29.6364 31.8182V34M34 31.8182H36.1818M34 31.8182V34H36.1818V31.8182M38.3636 31.8182H36.1818M38.3636 31.8182H40.5455M38.3636 31.8182V34H40.5455M40.5455 31.8182H42.7273M40.5455 31.8182V34M42.7273 31.8182V34M42.7273 31.8182H44.9091M47.0909 31.8182H44.9091M47.0909 31.8182H49.2727M47.0909 31.8182V34M44.9091 31.8182V34M49.2727 31.8182H51.4545M49.2727 31.8182V34M51.4545 31.8182H53.6364M51.4545 31.8182V34M53.6364 31.8182H55.8182M53.6364 31.8182V34M58 31.8182H55.8182M58 31.8182V34M55.8182 31.8182V34M66.7273 31.8182H68.9091M68.9091 31.8182H71.0909V34H68.9091M68.9091 31.8182V34M77.6364 31.8182H75.4545M77.6364 31.8182V34M77.6364 31.8182H79.8182M75.4545 31.8182V34M79.8182 31.8182V34M12.1818 31.8182H10V34H12.1818M12.1818 31.8182V34M12.1818 31.8182H14.3636M12.1818 34H14.3636M12.1818 34V36.1818M14.3636 31.8182V34M14.3636 31.8182H16.5455V34M14.3636 34H16.5455M14.3636 34V36.1818M16.5455 34V36.1818M23.0909 34H20.9091M23.0909 34H25.2727M23.0909 34V36.1818M20.9091 34H18.7273V36.1818M20.9091 34V36.1818M25.2727 34H27.4545M25.2727 34V36.1818M31.8182 34H29.6364M31.8182 34V36.1818M29.6364 34H27.4545M29.6364 34V36.1818M40.5455 34H42.7273M42.7273 34H44.9091M44.9091 34H47.0909M44.9091 34V36.1818H47.0909V34M49.2727 34H47.0909M49.2727 34H51.4545M49.2727 34V36.1818H51.4545M51.4545 34V36.1818M51.4545 34H53.6364M55.8182 34H53.6364M55.8182 34H58M55.8182 34V36.1818M53.6364 34V36.1818H51.4545M58 34V36.1818M58 34H60.1818V36.1818M68.9091 34H66.7273M68.9091 34V36.1818H66.7273M77.6364 34H75.4545M77.6364 34H79.8182M77.6364 34V36.1818M75.4545 34H73.2727V36.1818M75.4545 34V36.1818M79.8182 34V36.1818M79.8182 34H82V36.1818H79.8182M14.3636 36.1818H12.1818M14.3636 36.1818H16.5455M12.1818 36.1818H10V38.3636H12.1818M12.1818 36.1818V38.3636M16.5455 36.1818H18.7273M16.5455 36.1818V38.3636M20.9091 36.1818H18.7273M20.9091 36.1818H23.0909M20.9091 36.1818V38.3636M18.7273 36.1818V38.3636M23.0909 36.1818V38.3636M23.0909 36.1818H25.2727M27.4545 34V36.1818M27.4545 36.1818H25.2727M27.4545 36.1818H29.6364M25.2727 36.1818V38.3636M29.6364 36.1818H31.8182M31.8182 36.1818H34V38.3636M31.8182 36.1818V38.3636M58 36.1818H55.8182M58 36.1818H60.1818M58 36.1818V38.3636M55.8182 36.1818V38.3636H58M60.1818 36.1818H62.3636V38.3636M60.1818 36.1818V38.3636M66.7273 34H64.5455V36.1818M66.7273 34V36.1818M66.7273 36.1818H64.5455M66.7273 36.1818V38.3636M64.5455 36.1818V38.3636H66.7273M75.4545 36.1818H73.2727M75.4545 36.1818H77.6364M75.4545 36.1818V38.3636M73.2727 36.1818H71.0909V38.3636H73.2727M73.2727 36.1818V38.3636M77.6364 36.1818H79.8182M77.6364 36.1818V38.3636M79.8182 36.1818V38.3636M12.1818 38.3636H14.3636M12.1818 38.3636V40.5455M18.7273 38.3636H16.5455M18.7273 38.3636H20.9091M18.7273 38.3636V40.5455M16.5455 38.3636H14.3636M16.5455 38.3636V40.5455M20.9091 38.3636H23.0909M20.9091 38.3636V40.5455M23.0909 38.3636H25.2727M25.2727 38.3636H27.4545M25.2727 38.3636V40.5455M34 38.3636H31.8182M34 38.3636V40.5455M31.8182 38.3636H29.6364M31.8182 38.3636V40.5455M58 38.3636H60.1818M58 38.3636V40.5455M62.3636 38.3636H60.1818M62.3636 38.3636V40.5455H60.1818M60.1818 38.3636V40.5455M66.7273 38.3636H68.9091V40.5455M66.7273 38.3636V40.5455M73.2727 38.3636H75.4545M73.2727 38.3636V40.5455M75.4545 38.3636V40.5455M75.4545 38.3636H77.6364M79.8182 38.3636H77.6364M79.8182 38.3636H82V40.5455H79.8182M79.8182 38.3636V40.5455M77.6364 38.3636V40.5455M14.3636 38.3636V40.5455M14.3636 40.5455H12.1818M14.3636 40.5455H16.5455M14.3636 40.5455V42.7273M12.1818 40.5455H10V42.7273H12.1818M12.1818 40.5455V42.7273M16.5455 40.5455H18.7273M16.5455 40.5455V42.7273M20.9091 40.5455H18.7273M20.9091 40.5455H23.0909M20.9091 40.5455V42.7273M18.7273 40.5455V42.7273H16.5455M27.4545 38.3636V40.5455M27.4545 38.3636H29.6364M27.4545 40.5455H25.2727M27.4545 40.5455H29.6364M27.4545 40.5455V42.7273H29.6364M25.2727 40.5455H23.0909M25.2727 40.5455V42.7273H23.0909M29.6364 38.3636V40.5455M29.6364 40.5455H31.8182M29.6364 40.5455V42.7273M31.8182 40.5455H34M34 40.5455H36.1818V42.7273M34 40.5455V42.7273M60.1818 40.5455H58M60.1818 40.5455V42.7273M58 40.5455V42.7273M68.9091 40.5455H66.7273M68.9091 40.5455V42.7273M66.7273 40.5455V42.7273M75.4545 40.5455H73.2727M75.4545 40.5455H77.6364M75.4545 40.5455V42.7273M73.2727 40.5455H71.0909V42.7273M73.2727 40.5455V42.7273M77.6364 40.5455H79.8182M77.6364 40.5455V42.7273M79.8182 40.5455V42.7273M12.1818 42.7273H14.3636M14.3636 42.7273H16.5455M14.3636 42.7273V44.9091M16.5455 42.7273V44.9091M23.0909 40.5455V42.7273M23.0909 42.7273H20.9091M23.0909 42.7273V44.9091M20.9091 42.7273V44.9091M29.6364 42.7273H31.8182M29.6364 42.7273V44.9091H31.8182M36.1818 42.7273H34M36.1818 42.7273V44.9091H34M34 42.7273H31.8182M34 42.7273V44.9091M60.1818 42.7273H58M60.1818 42.7273V44.9091M60.1818 42.7273H62.3636V44.9091M58 42.7273H55.8182V44.9091H58M58 42.7273V44.9091M68.9091 42.7273H66.7273M68.9091 42.7273H71.0909M68.9091 42.7273V44.9091H71.0909V42.7273M66.7273 42.7273H64.5455V44.9091M66.7273 42.7273V44.9091M73.2727 42.7273H71.0909M73.2727 42.7273H75.4545M73.2727 42.7273V44.9091H75.4545M75.4545 42.7273V44.9091M75.4545 42.7273H77.6364M79.8182 42.7273H77.6364M79.8182 42.7273V44.9091M79.8182 42.7273H82V44.9091M77.6364 42.7273V44.9091M16.5455 44.9091H14.3636M16.5455 44.9091V47.0909M14.3636 44.9091V47.0909M23.0909 44.9091H20.9091M23.0909 44.9091V47.0909M23.0909 44.9091H25.2727V47.0909H23.0909M20.9091 44.9091V47.0909H23.0909M31.8182 42.7273V44.9091M31.8182 44.9091H34M58 44.9091H60.1818M60.1818 44.9091H62.3636M60.1818 44.9091V47.0909M62.3636 44.9091V47.0909M66.7273 44.9091H64.5455M66.7273 44.9091V47.0909M64.5455 44.9091V47.0909M75.4545 44.9091H77.6364M75.4545 44.9091V47.0909H77.6364M77.6364 44.9091H79.8182M77.6364 44.9091V47.0909M79.8182 44.9091H82M79.8182 44.9091V47.0909M82 44.9091V47.0909M16.5455 47.0909H14.3636M16.5455 47.0909V49.2727M16.5455 47.0909H18.7273V49.2727M14.3636 47.0909V49.2727M62.3636 47.0909H60.1818M62.3636 47.0909V49.2727M62.3636 47.0909H64.5455M60.1818 47.0909V49.2727M66.7273 47.0909H64.5455M66.7273 47.0909V49.2727M66.7273 47.0909H68.9091V49.2727H66.7273M64.5455 47.0909V49.2727M77.6364 47.0909H79.8182M77.6364 47.0909V49.2727M79.8182 47.0909H82M79.8182 47.0909V49.2727M82 47.0909V49.2727H79.8182M16.5455 49.2727H14.3636M16.5455 49.2727H18.7273M16.5455 49.2727V51.4545M14.3636 49.2727V51.4545M18.7273 49.2727V51.4545M18.7273 49.2727H20.9091M31.8182 49.2727V47.0909H29.6364V49.2727M31.8182 49.2727H29.6364M31.8182 49.2727H34M31.8182 49.2727V51.4545H34M29.6364 49.2727H27.4545M29.6364 49.2727V51.4545H27.4545M62.3636 49.2727H60.1818M62.3636 49.2727H64.5455M60.1818 49.2727H58V51.4545M60.1818 49.2727V51.4545M64.5455 49.2727H66.7273M79.8182 49.2727H77.6364M77.6364 49.2727H75.4545V51.4545M77.6364 49.2727V51.4545M12.1818 51.4545V49.2727H10V51.4545M12.1818 51.4545H10M12.1818 51.4545V53.6364M12.1818 51.4545H14.3636M10 51.4545V53.6364H12.1818M16.5455 51.4545H14.3636M16.5455 51.4545H18.7273M16.5455 51.4545V53.6364M14.3636 51.4545V53.6364M18.7273 51.4545H20.9091M18.7273 51.4545V53.6364M20.9091 49.2727V51.4545M20.9091 49.2727H23.0909M20.9091 51.4545H23.0909M23.0909 49.2727V51.4545M23.0909 49.2727H25.2727M23.0909 51.4545H25.2727M25.2727 49.2727V51.4545M25.2727 49.2727H27.4545M25.2727 51.4545H27.4545M25.2727 51.4545V53.6364M27.4545 49.2727V51.4545M27.4545 51.4545V53.6364M34 49.2727V51.4545M34 49.2727H36.1818V51.4545M34 51.4545H36.1818M34 51.4545V53.6364M36.1818 51.4545V53.6364H34M60.1818 51.4545H58M60.1818 51.4545H62.3636M60.1818 51.4545V53.6364M58 51.4545H55.8182V53.6364H58M58 51.4545V53.6364M73.2727 51.4545V49.2727H71.0909V51.4545M73.2727 51.4545H71.0909M73.2727 51.4545V53.6364M73.2727 51.4545H75.4545M71.0909 51.4545V53.6364M77.6364 51.4545H75.4545M77.6364 51.4545V53.6364M77.6364 51.4545H79.8182V53.6364M75.4545 51.4545V53.6364M12.1818 53.6364H14.3636M12.1818 53.6364V55.8182M14.3636 53.6364H16.5455M14.3636 53.6364V55.8182M16.5455 53.6364H18.7273M16.5455 53.6364V55.8182H14.3636M18.7273 53.6364H20.9091V55.8182H18.7273V53.6364ZM27.4545 53.6364H25.2727M27.4545 53.6364H29.6364V55.8182M27.4545 53.6364V55.8182M25.2727 53.6364H23.0909V55.8182H25.2727M25.2727 53.6364V55.8182M34 53.6364H31.8182V55.8182M34 53.6364V55.8182H31.8182M58 53.6364H60.1818M58 53.6364V55.8182H60.1818V53.6364M62.3636 51.4545V53.6364M62.3636 51.4545H64.5455M62.3636 53.6364H60.1818M62.3636 53.6364H64.5455M62.3636 53.6364V55.8182M64.5455 51.4545V53.6364M64.5455 51.4545H66.7273M64.5455 53.6364H66.7273M64.5455 53.6364V55.8182M66.7273 51.4545V53.6364M66.7273 51.4545H68.9091V53.6364H66.7273M66.7273 53.6364V55.8182M73.2727 53.6364H71.0909M73.2727 53.6364H75.4545M73.2727 53.6364V55.8182M71.0909 53.6364V55.8182H73.2727M75.4545 53.6364H77.6364M75.4545 53.6364V55.8182M77.6364 53.6364H79.8182M79.8182 53.6364H82V55.8182M79.8182 53.6364V55.8182M14.3636 55.8182H12.1818M14.3636 55.8182V58M12.1818 55.8182H10V58M12.1818 55.8182V58M25.2727 55.8182H27.4545M25.2727 55.8182V58M29.6364 55.8182H27.4545M29.6364 55.8182H31.8182M29.6364 55.8182V58M27.4545 55.8182V58M31.8182 55.8182V58M64.5455 55.8182H62.3636M64.5455 55.8182H66.7273M64.5455 55.8182V58M62.3636 55.8182V58M66.7273 55.8182H68.9091V58M66.7273 55.8182V58H68.9091M73.2727 55.8182H75.4545M73.2727 55.8182V58M75.4545 55.8182V58M82 55.8182H79.8182M82 55.8182V58H79.8182M79.8182 55.8182H77.6364V58M79.8182 55.8182V58M12.1818 58H10M12.1818 58H14.3636M12.1818 58V60.1818M10 58V60.1818M14.3636 58H16.5455M14.3636 58V60.1818M27.4545 58H25.2727M27.4545 58H29.6364M27.4545 58V60.1818M25.2727 58H23.0909M25.2727 58V60.1818M31.8182 58H29.6364M31.8182 58H34M31.8182 58V60.1818M29.6364 58V60.1818M40.5455 55.8182H38.3636V58M40.5455 55.8182V58M40.5455 55.8182H42.7273M40.5455 58H38.3636M40.5455 58H42.7273M40.5455 58V60.1818M38.3636 58H36.1818M38.3636 58V60.1818M42.7273 55.8182V58M42.7273 55.8182H44.9091V58M42.7273 58H44.9091M42.7273 58V60.1818M44.9091 58V60.1818M49.2727 58V55.8182H47.0909V58M49.2727 58H47.0909M49.2727 58V60.1818M49.2727 58H51.4545V60.1818M47.0909 58V60.1818M64.5455 58H62.3636M64.5455 58V60.1818M62.3636 58V60.1818M68.9091 58H71.0909M68.9091 58V60.1818H71.0909M75.4545 58H73.2727M75.4545 58V60.1818M73.2727 58H71.0909M73.2727 58V60.1818M79.8182 58H77.6364M79.8182 58V60.1818M77.6364 58V60.1818M12.1818 60.1818H10M12.1818 60.1818V62.3636M10 60.1818V62.3636M16.5455 58V60.1818M16.5455 58H18.7273V60.1818M16.5455 60.1818H14.3636M16.5455 60.1818H18.7273M16.5455 60.1818V62.3636M14.3636 60.1818V62.3636H16.5455M18.7273 60.1818V62.3636M18.7273 60.1818H20.9091M23.0909 58H20.9091V60.1818M23.0909 58V60.1818M23.0909 60.1818H20.9091M23.0909 60.1818H25.2727M23.0909 60.1818V62.3636M20.9091 60.1818V62.3636M25.2727 60.1818H27.4545M25.2727 60.1818V62.3636M29.6364 60.1818H27.4545M29.6364 60.1818V62.3636M27.4545 60.1818V62.3636M34 58V60.1818M34 58H36.1818M34 60.1818H31.8182M34 60.1818H36.1818M34 60.1818V62.3636H31.8182M31.8182 60.1818V62.3636M36.1818 58V60.1818M36.1818 60.1818H38.3636M36.1818 60.1818V62.3636H38.3636M38.3636 60.1818H40.5455M38.3636 60.1818V62.3636M40.5455 60.1818V62.3636M40.5455 60.1818H42.7273M44.9091 60.1818H42.7273M44.9091 60.1818V62.3636M44.9091 60.1818H47.0909M42.7273 60.1818V62.3636M49.2727 60.1818H47.0909M49.2727 60.1818H51.4545M49.2727 60.1818V62.3636M47.0909 60.1818V62.3636M51.4545 60.1818V62.3636M51.4545 60.1818H53.6364V62.3636M60.1818 60.1818V58H58V60.1818M60.1818 60.1818H58M60.1818 60.1818V62.3636M60.1818 60.1818H62.3636M58 60.1818H55.8182V62.3636M58 60.1818V62.3636M64.5455 60.1818H62.3636M64.5455 60.1818V62.3636M62.3636 60.1818V62.3636M71.0909 58V60.1818M71.0909 60.1818H73.2727M71.0909 60.1818V62.3636M73.2727 60.1818H75.4545M73.2727 60.1818V62.3636M75.4545 60.1818H77.6364M75.4545 60.1818V62.3636H77.6364M79.8182 60.1818H77.6364M79.8182 60.1818V62.3636H77.6364M77.6364 60.1818V62.3636M12.1818 62.3636H10M12.1818 62.3636V64.5455H10V62.3636M16.5455 62.3636H18.7273M18.7273 62.3636H20.9091M20.9091 62.3636H23.0909M23.0909 62.3636H25.2727M23.0909 62.3636V64.5455H25.2727V62.3636M27.4545 62.3636H25.2727M27.4545 62.3636H29.6364M29.6364 62.3636H31.8182M29.6364 62.3636V64.5455M31.8182 62.3636V64.5455M38.3636 62.3636H40.5455M40.5455 62.3636H42.7273M42.7273 62.3636H44.9091M44.9091 62.3636H47.0909M47.0909 62.3636H49.2727M49.2727 62.3636H51.4545M51.4545 62.3636H53.6364M51.4545 62.3636V64.5455M53.6364 62.3636V64.5455M53.6364 62.3636H55.8182M58 62.3636H55.8182M58 62.3636H60.1818M58 62.3636V64.5455M55.8182 62.3636V64.5455M60.1818 62.3636H62.3636M60.1818 62.3636V64.5455M62.3636 62.3636H64.5455M62.3636 62.3636V64.5455M64.5455 62.3636V64.5455M64.5455 62.3636H66.7273M73.2727 62.3636H71.0909M73.2727 62.3636V64.5455M71.0909 62.3636H68.9091M71.0909 62.3636V64.5455M31.8182 64.5455H29.6364M31.8182 64.5455V66.7273H29.6364M29.6364 64.5455H27.4545V66.7273H29.6364M29.6364 64.5455V66.7273M53.6364 64.5455H51.4545M53.6364 64.5455H55.8182M53.6364 64.5455V66.7273M51.4545 64.5455H49.2727V66.7273M51.4545 64.5455V66.7273M55.8182 64.5455H58M58 64.5455H60.1818M58 64.5455V66.7273M60.1818 64.5455V66.7273M64.5455 64.5455H62.3636M64.5455 64.5455H66.7273M64.5455 64.5455V66.7273M62.3636 64.5455V66.7273M66.7273 62.3636V64.5455M66.7273 62.3636H68.9091M66.7273 64.5455H68.9091M68.9091 62.3636V64.5455M68.9091 64.5455H71.0909M71.0909 64.5455H73.2727M71.0909 64.5455V66.7273M73.2727 64.5455V66.7273M42.7273 64.5455H40.5455V66.7273M42.7273 64.5455V66.7273M42.7273 64.5455H44.9091M42.7273 66.7273H40.5455M42.7273 66.7273H44.9091M40.5455 66.7273H38.3636M40.5455 66.7273V68.9091H38.3636M44.9091 64.5455V66.7273M44.9091 64.5455H47.0909V66.7273M44.9091 66.7273H47.0909M44.9091 66.7273V68.9091M47.0909 66.7273V68.9091M47.0909 66.7273H49.2727M51.4545 66.7273H49.2727M51.4545 66.7273H53.6364M51.4545 66.7273V68.9091M49.2727 66.7273V68.9091M53.6364 66.7273V68.9091M53.6364 66.7273H55.8182V68.9091H53.6364M60.1818 66.7273H58M60.1818 66.7273V68.9091M60.1818 66.7273H62.3636M58 66.7273V68.9091H60.1818M64.5455 66.7273H62.3636M64.5455 66.7273V68.9091M62.3636 66.7273V68.9091M73.2727 66.7273H71.0909M73.2727 66.7273V68.9091M71.0909 66.7273V68.9091M77.6364 66.7273V64.5455H75.4545V66.7273M77.6364 66.7273H75.4545M77.6364 66.7273V68.9091M77.6364 66.7273H79.8182M75.4545 66.7273V68.9091M79.8182 66.7273H82V64.5455H79.8182V66.7273ZM79.8182 66.7273V68.9091M36.1818 66.7273H34V68.9091M36.1818 66.7273V68.9091M36.1818 66.7273H38.3636M36.1818 68.9091H34M36.1818 68.9091H38.3636M36.1818 68.9091V71.0909M34 68.9091V71.0909M38.3636 66.7273V68.9091M47.0909 68.9091H44.9091M47.0909 68.9091H49.2727M47.0909 68.9091V71.0909M44.9091 68.9091V71.0909M49.2727 68.9091H51.4545M51.4545 68.9091H53.6364M51.4545 68.9091V71.0909H53.6364V68.9091M60.1818 68.9091H62.3636M60.1818 68.9091V71.0909M62.3636 68.9091H64.5455M62.3636 68.9091V71.0909M64.5455 68.9091V71.0909M73.2727 68.9091H71.0909M73.2727 68.9091V71.0909M71.0909 68.9091V71.0909M77.6364 68.9091H75.4545M77.6364 68.9091H79.8182M77.6364 68.9091V71.0909M75.4545 68.9091V71.0909H77.6364M79.8182 68.9091V71.0909M79.8182 68.9091H82V71.0909M31.8182 71.0909V68.9091H29.6364V71.0909M31.8182 71.0909H29.6364M31.8182 71.0909H34M31.8182 71.0909V73.2727H34V71.0909M29.6364 71.0909H27.4545V73.2727M29.6364 71.0909V73.2727M36.1818 71.0909H34M36.1818 71.0909H38.3636M36.1818 71.0909V73.2727H38.3636M47.0909 71.0909H44.9091M47.0909 71.0909V73.2727H44.9091M44.9091 71.0909H42.7273V73.2727M44.9091 71.0909V73.2727M62.3636 71.0909H60.1818M62.3636 71.0909H64.5455M62.3636 71.0909V73.2727M60.1818 71.0909H58M60.1818 71.0909V73.2727M64.5455 71.0909V73.2727M64.5455 71.0909H66.7273M73.2727 71.0909H71.0909M73.2727 71.0909V73.2727M71.0909 71.0909H68.9091M71.0909 71.0909V73.2727M77.6364 71.0909H79.8182M77.6364 71.0909V73.2727M79.8182 71.0909H82M79.8182 71.0909V73.2727M82 71.0909V73.2727H79.8182M29.6364 73.2727H27.4545M29.6364 73.2727V75.4545M27.4545 73.2727V75.4545M38.3636 71.0909V73.2727M38.3636 71.0909H40.5455V73.2727M38.3636 73.2727H40.5455M38.3636 73.2727V75.4545H40.5455M40.5455 73.2727V75.4545M44.9091 73.2727H42.7273M44.9091 73.2727V75.4545M42.7273 73.2727V75.4545M58 71.0909H55.8182V73.2727M58 71.0909V73.2727M58 73.2727H55.8182M58 73.2727H60.1818M55.8182 73.2727H53.6364V75.4545H55.8182M55.8182 73.2727V75.4545M60.1818 73.2727H62.3636M60.1818 73.2727V75.4545H62.3636M64.5455 73.2727H62.3636M64.5455 73.2727H66.7273M64.5455 73.2727V75.4545M62.3636 73.2727V75.4545M66.7273 71.0909V73.2727M66.7273 71.0909H68.9091M66.7273 73.2727H68.9091M66.7273 73.2727V75.4545M68.9091 71.0909V73.2727M68.9091 73.2727H71.0909M71.0909 73.2727H73.2727M71.0909 73.2727V75.4545H73.2727M73.2727 73.2727V75.4545M73.2727 73.2727H75.4545M79.8182 73.2727H77.6364M79.8182 73.2727V75.4545H77.6364M77.6364 73.2727H75.4545M77.6364 73.2727V75.4545M29.6364 75.4545H27.4545M29.6364 75.4545V77.6364M27.4545 75.4545V77.6364H29.6364M40.5455 75.4545H42.7273M40.5455 75.4545V77.6364M44.9091 75.4545H42.7273M44.9091 75.4545V77.6364M42.7273 75.4545V77.6364M51.4545 75.4545V73.2727H49.2727V75.4545M51.4545 75.4545H49.2727M51.4545 75.4545V77.6364M49.2727 75.4545H47.0909V77.6364M49.2727 75.4545V77.6364M55.8182 75.4545H58V77.6364M55.8182 75.4545V77.6364M62.3636 75.4545H64.5455M62.3636 75.4545V77.6364H64.5455M64.5455 75.4545H66.7273M64.5455 75.4545V77.6364M66.7273 75.4545V77.6364M66.7273 75.4545H68.9091V77.6364M73.2727 75.4545H75.4545M75.4545 73.2727V75.4545M75.4545 75.4545H77.6364M75.4545 75.4545V77.6364M77.6364 75.4545V77.6364M29.6364 77.6364H31.8182M29.6364 77.6364V79.8182H31.8182M34 75.4545H31.8182V77.6364M34 75.4545V77.6364M34 75.4545H36.1818V77.6364M34 77.6364H31.8182M34 77.6364H36.1818M34 77.6364V79.8182M31.8182 77.6364V79.8182M36.1818 77.6364V79.8182M36.1818 77.6364H38.3636M42.7273 77.6364H40.5455M42.7273 77.6364H44.9091M42.7273 77.6364V79.8182M40.5455 77.6364H38.3636M40.5455 77.6364V79.8182M44.9091 77.6364V79.8182M44.9091 77.6364H47.0909M49.2727 77.6364H47.0909M49.2727 77.6364H51.4545M49.2727 77.6364V79.8182M47.0909 77.6364V79.8182M51.4545 77.6364V79.8182H49.2727M58 77.6364H55.8182M58 77.6364H60.1818V79.8182M58 77.6364V79.8182H60.1818M55.8182 77.6364H53.6364V79.8182M55.8182 77.6364V79.8182M64.5455 77.6364H66.7273M66.7273 77.6364H68.9091M66.7273 77.6364V79.8182H68.9091M68.9091 77.6364V79.8182M68.9091 77.6364H71.0909V79.8182H68.9091M77.6364 77.6364H75.4545M77.6364 77.6364V79.8182M75.4545 77.6364H73.2727V79.8182H75.4545M75.4545 77.6364V79.8182M31.8182 79.8182H34M31.8182 79.8182V82H34M36.1818 79.8182H34M36.1818 79.8182H38.3636M36.1818 79.8182V82M34 79.8182V82M38.3636 77.6364V79.8182M38.3636 79.8182H40.5455M38.3636 79.8182V82H36.1818M40.5455 79.8182H42.7273M40.5455 79.8182V82H42.7273M42.7273 79.8182H44.9091M42.7273 79.8182V82M44.9091 79.8182H47.0909M44.9091 79.8182V82H42.7273M47.0909 79.8182H49.2727M47.0909 79.8182V82H49.2727V79.8182M55.8182 79.8182H53.6364M55.8182 79.8182V82H53.6364V79.8182M60.1818 79.8182H62.3636M60.1818 79.8182V82H62.3636M75.4545 79.8182H77.6364M75.4545 79.8182V82H77.6364M77.6364 79.8182V82M77.6364 79.8182H79.8182V82H77.6364M34 82H36.1818M62.3636 79.8182V82M62.3636 79.8182H64.5455V82H62.3636M42.7273 10H44.9091V12.1818H42.7273V10ZM49.2727 10H51.4545V12.1818H49.2727V10ZM53.6364 55.8182H55.8182V58H53.6364V55.8182ZM66.7273 66.7273H68.9091V68.9091H66.7273V66.7273Z" stroke="white" style="stroke:white;stroke-opacity:1" stroke-width="0.161455"></path></g><defs><clipPath id="clip0_11475_22538"><path d="M0 6C0 2.68629 2.68629 0 6 0H86C89.3137 0 92 2.68629 92 6V86C92 89.3137 89.3137 92 86 92H6C2.68629 92 0 89.3137 0 86V6Z" fill="white" style="fill:white;fill-opacity:1"></path></clipPath></defs></svg>