<svg width="51" height="12" viewBox="0 0 51 12" fill="none" xmlns="http://www.w3.org/2000/svg" class="inline-block text-text-brand" data-testid="icon-shop-pay" style="width:50px;height:auto" stroke="none"><g clip-path="url(#clip0_7753_339195)"><path d="M35.9978 3.70762H37.1227C37.9036 3.70762 38.287 4.02831 38.287 4.56514C38.287 5.10196 37.9175 5.42266 37.1576 5.42266H35.9978V3.70762Z" fill="#5433EB" style="fill:color(display-p3 0.3294 0.2000 0.9216);fill-opacity:1"></path><path d="M40.8392 7.82093C40.4 7.82093 40.2257 7.58389 40.2257 7.34685C40.2257 7.02615 40.5883 6.87975 41.2994 6.79608L41.8571 6.73334C41.8222 7.34685 41.4109 7.82093 40.8392 7.82093Z" fill="#5433EB" style="fill:color(display-p3 0.3294 0.2000 0.9216);fill-opacity:1"></path><path fill-rule="evenodd" clip-rule="evenodd" d="M33.3994 0C32.3941 0 31.5791 0.814997 31.5791 1.82035V10.0993C31.5791 11.1046 32.3941 11.9196 33.3994 11.9196H48.2334C49.2388 11.9196 50.0538 11.1046 50.0538 10.0993V1.82035C50.0538 0.814996 49.2388 0 48.2334 0H33.3994ZM35.9978 8.33683V6.23835H37.3179C38.524 6.23835 39.1654 5.56209 39.1654 4.53725C39.1654 3.51241 38.524 2.8989 37.3179 2.8989H35.1473V8.33683H35.9978ZM40.6649 8.44838C41.3133 8.44838 41.7386 8.16254 41.9338 7.67452C41.9896 8.21831 42.3172 8.49718 43.0284 8.30895L43.0353 7.73029C42.7495 7.75818 42.6937 7.65361 42.6937 7.35382V5.93159C42.6937 5.09499 42.1429 4.6 41.1251 4.6C40.1211 4.6 39.5425 5.10196 39.5425 5.95251H40.3233C40.3233 5.54815 40.6092 5.30414 41.1111 5.30414C41.641 5.30414 41.885 5.53421 41.878 5.93159V6.11286L40.9787 6.21046C39.9678 6.32201 39.41 6.70545 39.41 7.37474C39.41 7.9255 39.8004 8.44838 40.6649 8.44838ZM45.6178 8.60873C45.2622 9.47322 44.6905 9.73118 43.7981 9.73118H43.4147V9.02006H43.826C44.3141 9.02006 44.5511 8.86668 44.809 8.42747L43.2265 4.71154H44.1049L45.2343 7.42354L46.2382 4.71154H47.0958L45.6178 8.60873Z" fill="#5433EB" style="fill:color(display-p3 0.3294 0.2000 0.9216);fill-opacity:1"></path><g clip-path="url(#clip1_7753_339195)"><path d="M4.07332 5.27822C2.89364 5.02374 2.3681 4.92416 2.3681 4.47211C2.3681 4.04692 2.72375 3.83512 3.43505 3.83512C4.06062 3.83512 4.51788 4.10699 4.85448 4.63965C4.87988 4.68075 4.93228 4.69497 4.97515 4.67285L6.30248 4.00583C6.35011 3.98212 6.36758 3.92206 6.34059 3.87622C5.78965 2.92627 4.77192 2.40625 3.43188 2.40625C1.67109 2.40625 0.577148 3.26926 0.577148 4.64123C0.577148 6.09856 1.90925 6.46684 3.09052 6.72132C4.27178 6.9758 4.79891 7.07538 4.79891 7.52743C4.79891 7.97948 4.41468 8.19287 3.64781 8.19287C2.93968 8.19287 2.41415 7.87042 2.0966 7.2445C2.07278 7.19866 2.01721 7.1797 1.97117 7.2034L0.647008 7.8562C0.600964 7.87991 0.581912 7.93523 0.605727 7.98265C1.13126 9.03375 2.20933 9.6249 3.6494 9.6249C5.48322 9.6249 6.59145 8.77611 6.59145 7.36147C6.59145 5.94682 5.253 5.53586 4.07332 5.28138V5.27822Z" fill="#5433EB" style="fill:color(display-p3 0.3294 0.2000 0.9216);fill-opacity:1"></path><path d="M11.1863 2.40569C10.4337 2.40569 9.76847 2.67123 9.29056 3.14384C9.2604 3.17229 9.21118 3.15174 9.21118 3.11064V0.0932561C9.21118 0.0410959 9.1699 0 9.1175 0H7.45674C7.40435 0 7.36307 0.0410959 7.36307 0.0932561V9.45838C7.36307 9.51054 7.40435 9.55163 7.45674 9.55163H9.1175C9.1699 9.55163 9.21118 9.51054 9.21118 9.45838V5.35037C9.21118 4.5569 9.82245 3.94837 10.6465 3.94837C11.4705 3.94837 12.0675 4.54426 12.0675 5.35037V9.45838C12.0675 9.51054 12.1088 9.55163 12.1612 9.55163H13.8219C13.8743 9.55163 13.9156 9.51054 13.9156 9.45838V5.35037C13.9156 3.62434 12.7788 2.40569 11.1863 2.40569Z" fill="#5433EB" style="fill:color(display-p3 0.3294 0.2000 0.9216);fill-opacity:1"></path><path d="M17.2848 2.13672C16.383 2.13672 15.5383 2.41175 14.9318 2.80848C14.8905 2.83535 14.8762 2.89067 14.9016 2.93335L15.6335 4.17729C15.6605 4.22154 15.7177 4.23735 15.7622 4.21048C16.2226 3.93387 16.7497 3.79004 17.288 3.7932C18.7375 3.7932 19.8029 4.81111 19.8029 6.15621C19.8029 7.30216 18.9503 8.15094 17.8691 8.15094C16.9879 8.15094 16.3766 7.64041 16.3766 6.91965C16.3766 6.50711 16.5528 6.16886 17.0117 5.93019C17.0593 5.9049 17.0768 5.84641 17.0482 5.80058L16.3576 4.63725C16.3353 4.59931 16.2877 4.58192 16.2448 4.59773C15.3192 4.93914 14.6698 5.76106 14.6698 6.86433C14.6698 8.53345 16.0051 9.77897 17.8675 9.77897C20.0427 9.77897 21.6066 8.27897 21.6066 6.12776C21.6066 3.82165 19.787 2.13672 17.2848 2.13672Z" fill="#5433EB" style="fill:color(display-p3 0.3294 0.2000 0.9216);fill-opacity:1"></path><path d="M26.465 2.39062C25.6251 2.39062 24.8741 2.70042 24.3263 3.24416C24.2962 3.27419 24.247 3.25206 24.247 3.21096V2.55659C24.247 2.50443 24.2057 2.46333 24.1533 2.46333H22.5354C22.483 2.46333 22.4417 2.50443 22.4417 2.55659V11.9075C22.4417 11.9596 22.483 12.0007 22.5354 12.0007H24.1961C24.2485 12.0007 24.2898 11.9596 24.2898 11.9075V8.8411C24.2898 8.8 24.339 8.77946 24.3692 8.80633C24.9154 9.31212 25.6378 9.6077 26.465 9.6077C28.4131 9.6077 29.9326 8.03815 29.9326 5.99916C29.9326 3.96017 28.4116 2.39062 26.465 2.39062ZM26.1506 8.02392C25.0424 8.02392 24.2025 7.14668 24.2025 5.98652C24.2025 4.82635 25.0408 3.94911 26.1506 3.94911C27.2605 3.94911 28.0972 4.81212 28.0972 5.98652C28.0972 7.16091 27.2716 8.02392 26.149 8.02392H26.1506Z" fill="#5433EB" style="fill:color(display-p3 0.3294 0.2000 0.9216);fill-opacity:1"></path></g></g><defs><clipPath id="clip0_7753_339195"><rect width="49.8462" height="12" fill="white" style="fill:white;fill-opacity:1" transform="translate(0.577148)"></rect></clipPath><clipPath id="clip1_7753_339195"><rect width="29.3538" height="12" fill="white" style="fill:white;fill-opacity:1" transform="translate(0.577148)"></rect></clipPath></defs></svg>